<?xml version="1.0" encoding="UTF-8"?>
<svg width="28px" height="33px" viewBox="0 0 28 33" version="1.1" xmlns="http://www.w3.org/2000/svg" xmlns:xlink="http://www.w3.org/1999/xlink">
    <!-- Generator: Sketch 55.1 (78136) - https://sketchapp.com -->
    <title>Group 25</title>
    <desc>Created with Sketch.</desc>
    <g id="Page-1" stroke="none" stroke-width="1" fill="none" fill-rule="evenodd">
        <g id="Monese_homepage" transform="translate(-168.000000, -1209.000000)" fill="#000000" fill-rule="nonzero">
            <g id="Group-31" transform="translate(164.000000, 905.000000)">
                <g id="Group-5" transform="translate(0.000000, 47.987256)">
                    <g id="Group-4" transform="translate(4.000000, 255.987256)">
                        <g id="Group-25" transform="translate(0.000000, 0.000000)">
                            <path d="M22.9496885,17.4432857 C22.911298,13.2994286 26.4432219,11.2834286 26.6047266,11.1895714 C24.6044504,8.35714286 21.5040885,7.97014286 20.4145933,7.93928571 C17.8106599,7.67314286 15.2848314,9.45257143 13.9583742,9.45257143 C12.6054409,9.45257143 10.5628028,7.965 8.36130757,8.00871429 C5.52835519,8.05114286 2.87808852,9.64414286 1.42454566,12.1178571 C-1.57520672,17.1617143 0.662031378,24.5738571 3.53602185,28.6508571 C4.973679,30.6475714 6.65359328,32.877 8.8524409,32.7985714 C11.0036314,32.7124286 11.8071838,31.4665714 14.4031742,31.4665714 C16.9753361,31.4665714 17.7299076,32.7985714 19.9724409,32.7484286 C22.2811647,32.7124286 23.7347076,30.7427143 25.1220599,28.728 C26.7834409,26.4394286 27.4506409,24.1855714 27.4771171,24.0698571 C27.4228409,24.0518571 22.9933742,22.41 22.9496885,17.4432857 L22.9496885,17.4432857 Z" id="Path"></path>
                            <path d="M18.713498,5.25728571 C19.8705076,3.852 20.6621457,1.94014286 20.4423933,8.57092175e-14 C18.7677742,0.072 16.6735076,1.125 15.4675171,2.49942857 C14.4005266,3.71057143 13.4473838,5.69571429 13.6936123,7.56257143 C15.5747457,7.69885714 17.5061838,6.64071429 18.713498,5.25728571 L18.713498,5.25728571 Z" id="Path"></path>
                        </g>
                    </g>
                </g>
            </g>
        </g>
    </g>
</svg>