<?xml version="1.0" encoding="UTF-8"?>
<svg width="135px" height="40px" viewBox="0 0 135 40" version="1.1" xmlns="http://www.w3.org/2000/svg" xmlns:xlink="http://www.w3.org/1999/xlink">
    <!-- Generator: Sketch 54.1 (76490) - https://sketchapp.com -->
    <title>apple-store-en</title>
    <desc>Created with Sketch.</desc>
    <g id="Page-1" stroke="none" stroke-width="1" fill="none" fill-rule="evenodd">
        <g id="apple-store-en" fill-rule="nonzero">
            <rect id="Rectangle" fill="#2A2A2A" x="0" y="0" width="135" height="40" rx="5"></rect>
            <path d="M29,20.3 C29.0194901,18.605112 29.9065726,17.0385621 31.35,16.15 C30.4399763,14.8304573 28.9524829,14.0272108 27.35,13.99 C25.67,13.81 24.05,14.99 23.19,14.99 C22.33,14.99 21,14 19.61,14 C17.7436234,14.0607149 16.0463194,15.0973234 15.14,16.73 C13.21,20.07 14.65,24.99 16.5,27.73 C17.43,29.06 18.5,30.54 19.93,30.48 C21.36,30.42 21.83,29.6 23.51,29.6 C25.19,29.6 25.65,30.48 27.1,30.45 C28.55,30.42 29.52,29.12 30.42,27.78 C31.084467,26.8354268 31.597315,25.7928608 31.94,24.69 C30.165049,23.9526304 29.0060469,22.2220116 29,20.3 L29,20.3 Z" id="Path" fill="#FFFFFF"></path>
            <path d="M26.29,12.21 C27.0981052,11.2343686 27.4960423,9.9831969 27.4,8.72 C26.1604629,8.85377961 25.015621,9.44581624 24.19,10.38 C23.3808395,11.3053016 22.970967,12.5133471 23.05,13.74 C24.3071646,13.7523921 25.5008537,13.1887055 26.29,12.21 Z" id="Path" fill="#FFFFFF"></path>
            <path d="M46.55,27.14 L41.82,27.14 L40.68,30.5 L38.68,30.5 L43.16,18.08 L45.24,18.08 L49.73,30.5 L47.73,30.5 L46.55,27.14 Z M42.31,25.59 L46.06,25.59 L44.21,20.14 L44.16,20.14 L42.31,25.59 Z" id="Shape" fill="#FFFFFF"></path>
            <path d="M59.41,26 C59.41,28.81 57.9,30.62 55.63,30.62 C54.448242,30.6699801 53.3416417,30.0409653 52.78,29 L52.78,29 L52.78,33.48 L50.88,33.48 L50.88,21.48 L52.68,21.48 L52.68,23 L52.68,23 C53.2755356,21.9755187 54.3856446,21.3609255 55.57,21.4 C57.89,21.35 59.41,23.16 59.41,26 Z M57.5,26 C57.5,24.17 56.5,23 55.11,23 C53.72,23 52.73,24.23 52.73,26 C52.73,27.77 53.73,29.05 55.11,29.05 C56.49,29.05 57.5,27.82 57.5,26 Z" id="Shape" fill="#FFFFFF"></path>
            <path d="M69.37,26 C69.37,28.81 67.87,30.62 65.6,30.62 C64.4176548,30.6724132 63.3098516,30.0427145 62.75,29 L62.75,29 L62.75,33.48 L60.85,33.48 L60.85,21.48 L62.64,21.48 L62.64,23 L62.64,23 C63.2322202,21.9771185 64.3386447,21.3624383 65.52,21.4 C67.86,21.35 69.37,23.16 69.37,26 Z M67.46,26 C67.46,24.17 66.52,23 65.07,23 C63.62,23 62.7,24.23 62.7,26 C62.7,27.77 63.7,29.05 65.07,29.05 C66.44,29.05 67.46,27.82 67.46,26 L67.46,26 Z" id="Shape" fill="#FFFFFF"></path>
            <path d="M76,27 C76.14,28.23 77.33,29 79,29 C80.67,29 81.69,28.19 81.69,27.08 C81.69,25.97 81.01,25.54 79.4,25.14 L77.79,24.75 C75.51,24.2 74.45,23.14 74.45,21.41 C74.45,19.26 76.32,17.79 78.97,17.79 C81.62,17.79 83.4,19.26 83.46,21.41 L81.51,21.41 C81.4,20.17 80.37,19.41 78.88,19.41 C77.39,19.41 76.36,20.16 76.36,21.27 C76.36,22.14 77.01,22.66 78.61,23.06 L79.98,23.39 C82.53,23.99 83.58,25.02 83.58,26.83 C83.58,29.16 81.73,30.61 78.79,30.61 C76.04,30.61 74.18,29.19 74.06,26.95 L76,27 Z" id="Path" fill="#FFFFFF"></path>
            <path d="M87.6,19.3 L87.6,21.44 L89.32,21.44 L89.32,22.91 L87.6,22.91 L87.6,27.91 C87.6,28.68 87.94,29.04 88.7,29.04 C88.9031438,29.0524149 89.1068562,29.0524149 89.31,29.04 L89.31,30.5 C88.9803415,30.562124 88.6454535,30.5922639 88.31,30.59 C86.47,30.59 85.76,29.9 85.76,28.14 L85.76,22.91 L84.41,22.91 L84.41,21.44 L85.73,21.44 L85.73,19.3 L87.6,19.3 Z" id="Path" fill="#FFFFFF"></path>
            <path d="M90.31,26 C90.31,23.15 91.99,21.36 94.61,21.36 C97.23,21.36 98.9,23.15 98.9,26 C98.9,28.85 97.24,30.64 94.61,30.64 C91.98,30.64 90.31,28.83 90.31,26 Z M97.01,26 C97.01,24.05 96.11,22.89 94.61,22.89 C93.11,22.89 92.21,24.05 92.21,26 C92.21,27.95 93.1,29.11 94.61,29.11 C96.12,29.11 97,27.93 97,26 L97.01,26 Z" id="Shape" fill="#FFFFFF"></path>
            <path d="M100.44,21.44 L102.21,21.44 L102.21,23 L102.21,23 C102.459837,22.0095502 103.369328,21.3295176 104.39,21.37 C104.60539,21.3671357 104.820321,21.3906438 105.03,21.44 L105.03,23.18 C104.759499,23.0897935 104.474939,23.0491421 104.19,23.06 C103.642438,23.0390373 103.112981,23.2580164 102.740193,23.6596286 C102.367404,24.0612408 102.18839,24.6055115 102.25,25.15 L102.25,30.5 L100.4,30.5 L100.44,21.44 Z" id="Path" fill="#FFFFFF"></path>
            <path d="M113.63,27.84 C113.38,29.48 111.78,30.61 109.74,30.61 C107.1,30.61 105.47,28.84 105.47,26.01 C105.47,23.18 107.11,21.33 109.66,21.33 C112.21,21.33 113.74,23.05 113.74,25.8 L113.74,26.43 L107.34,26.43 L107.34,26.55 C107.2822,27.2239388 107.516355,27.8902832 107.983037,28.3799175 C108.44972,28.8695518 109.104064,29.1354033 109.78,29.11 C110.680548,29.1940759 111.529779,28.6780362 111.87,27.84 L113.63,27.84 Z M107.35,25.13 L111.88,25.13 C111.910633,24.5260017 111.68898,23.9364208 111.268028,23.5021954 C110.847076,23.0679701 110.264658,22.8281269 109.66,22.84 C109.049196,22.8346653 108.461575,23.0735753 108.027781,23.5036132 C107.593987,23.9336511 107.349977,24.5191731 107.35,25.13 Z" id="Shape" fill="#FFFFFF"></path>
            <path d="M42.08,8.73 C42.8746152,8.67400735 43.6520289,8.97980185 44.1955537,9.56214989 C44.7390785,10.1444979 44.9905956,10.9411292 44.88,11.73 C44.88,13.63 43.88,14.73 42.08,14.73 L39.92,14.73 L39.92,8.73 L42.08,8.73 Z M40.85,13.85 L42,13.85 C42.5686578,13.8959121 43.127168,13.6797238 43.5167136,13.2629099 C43.9062593,12.8460961 44.0842233,12.2742571 44,11.71 C44.0802668,11.1465274 43.9009446,10.5770268 43.5123189,10.1611973 C43.1236932,9.74536777 42.5676078,9.52798228 42,9.57 L40.85,9.57 L40.85,13.85 Z" id="Shape" fill="#FFFFFF"></path>
            <path d="M45.93,12.44 C45.8755012,11.6460166 46.2681842,10.8878799 46.9481425,10.4743145 C47.6281009,10.0607491 48.4818991,10.0607491 49.1618575,10.4743145 C49.8418158,10.8878799 50.2344988,11.6460166 50.18,12.44 C50.2344988,13.2339834 49.8418158,13.9921201 49.1618575,14.4056855 C48.4818991,14.8192509 47.6281009,14.8192509 46.9481425,14.4056855 C46.2681842,13.9921201 45.8755012,13.2339834 45.93,12.44 L45.93,12.44 Z M49.26,12.44 C49.26,11.44 48.82,10.9 48.05,10.9 C47.28,10.9 46.85,11.47 46.85,12.44 C46.85,13.41 47.28,14 48.05,14 C48.82,14 49.26,13.42 49.26,12.44 Z" id="Shape" fill="#FFFFFF"></path>
            <polygon id="Path" fill="#FFFFFF" points="55.82 14.7 54.9 14.7 54 11.38 53.9 11.38 53 14.7 52.09 14.7 50.85 10.19 51.75 10.19 52.56 13.63 52.62 13.63 53.55 10.19 54.4 10.19 55.33 13.63 55.4 13.63 56.2 10.19 57.09 10.19"></polygon>
            <path d="M58.1,10.19 L59,10.19 L59,10.91 L59,10.91 C59.2352625,10.3844281 59.776017,10.063981 60.35,10.11 C60.7935669,10.0746894 61.2290241,10.2435877 61.5327741,10.568756 C61.836524,10.8939242 61.9754058,11.3398631 61.91,11.78 L61.91,14.7 L61,14.7 L61,12 C61,11.27 60.68,10.91 60,10.91 C59.7066241,10.9066777 59.4265901,11.0323599 59.2340707,11.2537572 C59.0415514,11.4751544 58.955972,11.7699277 59,12.06 L59,14.7 L58.1,14.7 L58.1,10.19 Z" id="Path" fill="#FFFFFF"></path>
            <polygon id="Path" fill="#FFFFFF" points="63.34 8.44 64.23 8.44 64.23 14.7 63.34 14.7"></polygon>
            <path d="M65.47,12.44 C65.3915669,11.6334323 65.7776149,10.8522285 66.4659611,10.4245806 C67.1543073,9.99693275 68.0256927,9.99693275 68.7140389,10.4245806 C69.4023851,10.8522285 69.7884331,11.6334323 69.71,12.44 C69.7884331,13.2465677 69.4023851,14.0277715 68.7140389,14.4554194 C68.0256927,14.8830673 67.1543073,14.8830673 66.4659611,14.4554194 C65.7776149,14.0277715 65.3915669,13.2465677 65.47,12.44 L65.47,12.44 Z M68.8,12.44 C68.8,11.44 68.36,10.9 67.59,10.9 C66.82,10.9 66.38,11.47 66.38,12.44 C66.38,13.41 66.82,14 67.59,14 C68.36,14 68.8,13.42 68.8,12.44 Z" id="Shape" fill="#FFFFFF"></path>
            <path d="M70.65,13.42 C70.65,12.61 71.25,12.15 72.32,12.08 L73.54,12 L73.54,11.61 C73.54,11.14 73.23,10.87 72.62,10.87 C72.01,10.87 71.78,11.05 71.68,11.37 L70.82,11.37 C70.91,10.59 71.64,10.1 72.66,10.1 C73.68,10.1 74.43,10.66 74.43,11.61 L74.43,14.7 L73.57,14.7 L73.57,14.06 L73.5,14.06 C73.2144333,14.5265201 72.6962091,14.7990676 72.15,14.77 C71.7674681,14.8095894 71.3860575,14.6853726 71.1002051,14.4281054 C70.8143527,14.1708383 70.6507846,13.8045743 70.65,13.42 L70.65,13.42 Z M73.54,13 L73.54,12.62 L72.44,12.69 C71.82,12.69 71.54,12.95 71.54,13.34 C71.54,13.73 71.9,13.98 72.38,13.98 C72.6651879,14.0105816 72.9504726,13.9231669 73.1695724,13.7380653 C73.3886723,13.5529637 73.5225135,13.2862893 73.54,13 L73.54,13 Z" id="Shape" fill="#FFFFFF"></path>
            <path d="M75.6,12.44 C75.6,11.02 76.33,10.12 77.47,10.12 C78.0438126,10.0953542 78.5807041,10.4027052 78.85,10.91 L78.91,10.91 L78.91,8.44 L79.8,8.44 L79.8,14.7 L79,14.7 L79,14 L78.93,14 C78.6410558,14.5014016 78.0982936,14.8016531 77.52,14.78 C76.32,14.77 75.6,13.87 75.6,12.44 Z M76.52,12.44 C76.52,13.44 76.97,13.97 77.72,13.97 C78.47,13.97 78.93,13.39 78.93,12.45 C78.93,11.51 78.46,10.92 77.72,10.92 C76.98,10.92 76.52,11.5 76.52,12.44 Z" id="Shape" fill="#FFFFFF"></path>
            <path d="M83.48,12.44 C83.4255012,11.6460166 83.8181842,10.8878799 84.4981425,10.4743145 C85.1781009,10.0607491 86.0318991,10.0607491 86.7118575,10.4743145 C87.3918158,10.8878799 87.7844988,11.6460166 87.73,12.44 C87.7844988,13.2339834 87.3918158,13.9921201 86.7118575,14.4056855 C86.0318991,14.8192509 85.1781009,14.8192509 84.4981425,14.4056855 C83.8181842,13.9921201 83.4255012,13.2339834 83.48,12.44 L83.48,12.44 Z M86.81,12.44 C86.81,11.44 86.37,10.9 85.6,10.9 C84.83,10.9 84.4,11.47 84.4,12.44 C84.4,13.41 84.83,14 85.6,14 C86.37,14 86.81,13.42 86.81,12.44 Z" id="Shape" fill="#FFFFFF"></path>
            <path d="M88.92,10.19 L89.77,10.19 L89.77,10.91 L89.84,10.91 C90.0716644,10.386013 90.6088309,10.0653165 91.18,10.11 C91.6235669,10.0746894 92.0590241,10.2435877 92.3627741,10.568756 C92.666524,10.8939242 92.8054058,11.3398631 92.74,11.78 L92.74,14.7 L91.85,14.7 L91.85,12 C91.85,11.27 91.54,10.91 90.85,10.91 C90.5467069,10.8855634 90.2487875,11.0005442 90.0405512,11.2224034 C89.832315,11.4442625 89.7364185,11.7488614 89.78,12.05 L89.78,14.7 L88.89,14.7 L88.92,10.19 Z" id="Path" fill="#FFFFFF"></path>
            <path d="M97.76,9.07 L97.76,10.22 L98.76,10.22 L98.76,11 L97.76,11 L97.76,13.32 C97.76,13.79 97.96,14 98.4,14 L98.74,14 L98.74,14.74 C98.580194,14.7511439 98.419806,14.7511439 98.26,14.74 C97.26,14.74 96.87,14.4 96.87,13.53 L96.87,11 L96.16,11 L96.16,10.26 L96.87,10.26 L96.87,9.07 L97.76,9.07 Z" id="Path" fill="#FFFFFF"></path>
            <path d="M100,8.44 L100.88,8.44 L100.88,10.92 L100.95,10.92 C101.192881,10.38575 101.745131,10.0616037 102.33,10.11 C102.771779,10.0849149 103.201607,10.2588163 103.50166,10.5840342 C103.801712,10.9092521 103.940508,11.3516658 103.88,11.79 L103.88,14.7 L102.99,14.7 L102.99,12 C102.99,11.28 102.65,10.92 101.99,10.92 C101.680825,10.8956351 101.376488,11.0078931 101.157191,11.2271906 C100.937893,11.446488 100.825635,11.7508251 100.85,12.06 L100.85,14.7 L100,14.7 L100,8.44 Z" id="Path" fill="#FFFFFF"></path>
            <path d="M109,13.48 C108.749801,14.3507092 107.897302,14.9048334 107,14.78 C106.409165,14.7876203 105.845199,14.5335875 105.459387,14.0860456 C105.073575,13.6385037 104.905409,13.0432643 105,12.46 C104.92186,11.8632896 105.105994,11.2619829 105.504858,10.8113428 C105.903723,10.3607028 106.478217,10.1049054 107.08,10.11 C108.33,10.11 109.08,10.96 109.08,12.38 L109.08,12.69 L105.9,12.69 L105.9,12.69 C105.871784,13.024292 105.985984,13.3549642 106.214481,13.6005986 C106.442979,13.8462331 106.764543,13.9840078 107.1,13.98 C107.535213,14.0306889 107.957922,13.8134086 108.17,13.43 L109,13.48 Z M105.88,12 L108.16,12 C108.182602,11.6938107 108.075024,11.3922879 107.863713,11.1695543 C107.652402,10.9468207 107.356954,10.8235335 107.05,10.83 C106.738879,10.8273062 106.439717,10.9497084 106.219713,11.1697127 C105.999708,11.3897169 105.877306,11.6888787 105.88,12 Z" id="Shape" fill="#FFFFFF"></path>
        </g>
    </g>
</svg>