<svg enable-background="new 0 0 140 140" height="512" viewBox="0 0 140 140" width="512" xmlns="http://www.w3.org/2000/svg"><circle cx="70" cy="70" fill="#344d5b" r="64"/><path d="m133.7793732 64.9001846-27.6965256-27.6918907c-.4000244-.4299316-.9700928-.6999512-1.5999756-.6999512h-58.489994c-1.2199707 0-2.2199707.9899902-2.2199707 2.2099609v17.0698242c0 .6101074.25 1.1601562.6398926 1.5600586.0100098.0100098.0200195.0100098.0200195.0200195l4.7700195 4.7600098c-1.0100098.8200684-1.7900391 1.9299278-2.1799316 3.260006l-7.210083 24.880127-1.289917-.5800781c-.4801025-.2099609-1.0400391 0-1.2600098.4799805l-3.8701172 8.5600586c-.2199707.4799805 0 1.0500488.4799805 1.2600098l33.9567909 33.9567947c.7220459.0241699 1.4425049.0549316 2.1704102.0549316 35.3455811 0 63.9986496-28.6525955 63.9999924-63.9975662v-.0048828c-.0000001-1.7177735-.0876466-3.4140626-.2205811-5.0974122z" opacity=".1"/><path d="m104.4794998 36.5091629h-58.4879455c-1.2225838 0-2.2136993.9910736-2.2136993 2.2135773v17.0687561c0 1.2226715.9911156 2.2137451 2.2136993 2.2137451h58.4879456c1.2225876 0 2.2136993-.9910736 2.2136993-2.2137451v-17.0687561c0-1.2225037-.9911118-2.2135773-2.2136994-2.2135773z" fill="#ededed"/><path d="m49.370327 46.9572029v-.0000038c0-1.0989342.8908653-1.9897995 1.9898033-1.9897995h47.7507935c1.098938 0 1.9897995.8908653 1.9897995 1.9897995v.0000038c0 1.098938-.8908615 1.9898033-1.9897995 1.9898033h-47.7507935c-1.098938 0-1.9898033-.8908653-1.9898033-1.9898033z" fill="#3a556a"/><path d="m60.9763374 44.9735374v38.2364388c0 .8780975.711731 1.5897827 1.589653 1.5897827h27.3404579c.8780518 0 1.5898209-.7118607 1.5898209-1.5897827v-38.2364388z" fill="#3ea69b"/><path d="m63.2653503 44.9735374v33.1815758c2.4056168 0 4.3555527 1.950058 4.3555527 4.3556366h17.2308044c0-2.4055786 1.9499359-4.3556366 4.3555527-4.3556366v-33.1815758z" fill="#44c4a1"/><ellipse cx="76.484" cy="60.702" fill="#3ea69b" rx="10.802" ry="8.266"/><path d="m82.7076492 61.2727051h-.9907684c-.0170975.9739532-.3194046 1.9821053-.7393494 2.5703087l-1.1257935-.4035339c.4035339-.6046181.7222595-1.478714.7222595-2.419838 0-1.1928177-.6887436-1.9985199-1.646286-1.9985199-.9240265 0-1.4951248.6552315-1.9991989 1.8986626-.6716461 1.7126274-1.444519 2.771389-2.9061356 2.771389-1.3945847 0-2.4526596-.9903679-2.70504-2.5361061h-1.0578459v-1.0423508h.9908142c.0335159-1.008152.3023071-1.696209.5882034-2.1831856l1.108696.4199486c-.201767.3529205-.571106 1.0409813-.571106 2.1161575 0 1.2940445.7728729 1.7810211 1.4445114 1.7810211.8734131 0 1.310463-.6210289 1.9150772-2.0833282.7058487-1.7304077 1.5792542-2.603138 3.0743866-2.603138 1.3275528 0 2.5703049.9233437 2.8562012 2.6537514h1.0413742z" fill="#44c4a1"/><path d="m76.4793549 74.5634995c1.5317307 0 2.7654648 1.2334976 2.7654648 2.7554474 0 1.5220184-1.2337341 2.7654648-2.7654648 2.7654648-1.5220108 0-2.7555084-1.2434464-2.7555084-2.7654648-.0000001-1.5219498 1.2334976-2.7554474 2.7555084-2.7554474z" fill="#3ea69b"/><path d="m39.7939949 90.3496246 7.2314682-24.9616928c.8037415-2.7743683 3.3040619-4.6454887 6.1002769-4.7247963.402565-.0114174 7.8500786-.412571 7.8500786-.412571v7.5266418l-2.3278694.500267c-1.0387154.8286057-1.2691841 2.314949-.5301743 3.4192047.7401085 1.1059036 2.204998 1.4588013 3.3675156.8112411l9.8593826-5.4811935c1.1972809-.6213379 2.6713715-.201004 3.3608856.9583511v.0000076c.7947693 1.6731491.3727112 3.6711578-1.0308456 4.8799362l-9.2186737 7.514595-1.8461266 6.5427856c-.5240974 2.4813766-1.925869 4.6903534-3.9478455 6.221199l-4.7301407 3.5812149" fill="#f7be56"/><path d="m55.2994957 97.2054749-16.7736702-7.5156097c-.4796867-.2149277-1.0429764-.0000381-1.2579994.479866l-3.8775215 8.5617142c-.2150269.4799042-.0004616 1.0433121.4792213 1.2582397l16.773674 7.5156174c.4799042.2150269 1.0434151.0002365 1.2584419-.4796677l3.8775215-8.5617142c.2150231-.4799042.0002366-1.0434189-.4796676-1.2584457z" fill="#dd584d"/><path d="m52.2803574 97.4794083c-.9626884-.4313431-2.0929146-.0005493-2.5243568.9623642-.4314423.9629059-.0006447 2.093132.9620438 2.5244751.9629097.4314423 2.0931358.0006485 2.5245781-.962265.4314383-.9629059.0006446-2.0931321-.9622651-2.5245743z" fill="#d5d6db"/></svg>