<svg height="480pt" viewBox="0 0 480 480" width="480pt" xmlns="http://www.w3.org/2000/svg"><path d="m192 176-32 40v88c0 8.839844 7.160156 16 16 16h128c8.839844 0 16-7.160156 16-16v-88l-32-40" fill="#8bd2f5"/><path d="m176 144h128v32h-128zm0 0" fill="#c18e59"/><path d="m144 168c0 39.765625-32.234375 72-72 72s-72-32.234375-72-72 32.234375-72 72-72 72 32.234375 72 72zm0 0" fill="#d1a339"/><path d="m120 168c0 26.507812-21.492188 48-48 48s-48-21.492188-48-48 21.492188-48 48-48 48 21.492188 48 48zm0 0" fill="#f0d365"/><path d="m312 72c0 39.765625-32.234375 72-72 72s-72-32.234375-72-72 32.234375-72 72-72 72 32.234375 72 72zm0 0" fill="#d1a339"/><path d="m288 72c0 26.507812-21.492188 48-48 48s-48-21.492188-48-48 21.492188-48 48-48 48 21.492188 48 48zm0 0" fill="#f0d365"/><path d="m480 168c0 39.765625-32.234375 72-72 72s-72-32.234375-72-72 32.234375-72 72-72 72 32.234375 72 72zm0 0" fill="#d1a339"/><path d="m456 168c0 26.507812-21.492188 48-48 48s-48-21.492188-48-48 21.492188-48 48-48 48 21.492188 48 48zm0 0" fill="#f0d365"/><path d="m104 336h24c8.839844 0 16 7.160156 16 16s-7.160156 16-16 16h-24" fill="#efbe9a"/><path d="m144 480v-32c0-26.511719-21.488281-48-48-48h-48c-26.511719 0-48 21.488281-48 48v32" fill="#b64f86"/><path d="m120 480v-32c0-26.511719-21.488281-48-48-48h-24c-26.511719 0-48 21.488281-48 48v32" fill="#e087a6"/><path d="m48 400v8c0 13.257812 10.742188 24 24 24s24-10.742188 24-24v-8" fill="#db9b7c"/><path d="m40 336h-24c-8.839844 0-16 7.160156-16 16s7.160156 16 16 16h24" fill="#db9b7c"/><path d="m112 304v56c0 22.089844-17.910156 40-40 40s-40-17.910156-40-40v-56" fill="#db9b7c"/><path d="m64 399.191406c18.257812-3.703125 32-19.839844 32-39.191406v-56h-64v56c0 19.351562 13.742188 35.488281 32 39.191406zm0 0" fill="#efbe9a"/><path d="m96 304c0 17.671875-30.328125 32-48 32h-32v-32c0-17.671875 14.328125-32 32-32h48c17.671875 0 32 14.328125 32 32v32c-17.671875 0-32-14.328125-32-32" fill="#a66d43"/><path d="m96 304c0 3.0625.566406 5.960938 1.367188 8.769531 4.226562-6.195312 6.632812-13.257812 6.632812-20.769531 0-7.128906-2.207031-13.847656-6.039062-19.800781-.664063-.039063-1.289063-.199219-1.960938-.199219h-48c-17.671875 0-32 14.328125-32 32v24.078125c9.070312 4.976563 20.097656 7.921875 32 7.921875 17.671875 0 48-14.328125 48-32zm0 0" fill="#c18e59"/><path d="m440 336h24c8.839844 0 16 7.160156 16 16s-7.160156 16-16 16h-24" fill="#efbe9a"/><path d="m480 480v-32c0-26.511719-21.488281-48-48-48h-48c-26.511719 0-48 21.488281-48 48v32" fill="#af4a47"/><path d="m456 480v-32c0-26.511719-21.488281-48-48-48h-24c-26.511719 0-48 21.488281-48 48v32" fill="#e4725f"/><path d="m384 400v8c0 13.257812 10.742188 24 24 24s24-10.742188 24-24v-8" fill="#db9b7c"/><path d="m376 336h-24c-8.839844 0-16 7.160156-16 16s7.160156 16 16 16h24" fill="#db9b7c"/><path d="m448 304v56c0 22.089844-17.910156 40-40 40s-40-17.910156-40-40v-56" fill="#db9b7c"/><path d="m400 399.191406c18.257812-3.703125 32-19.839844 32-39.191406v-56h-64v56c0 19.351562 13.742188 35.488281 32 39.191406zm0 0" fill="#efbe9a"/><path d="m432 304c0 17.671875-30.328125 32-48 32h-32v-32c0-17.671875 14.328125-32 32-32h48c17.671875 0 32 14.328125 32 32v32c-17.671875 0-32-14.328125-32-32" fill="#a66d43"/><path d="m432 304c0 3.0625.566406 5.960938 1.367188 8.769531 4.226562-6.195312 6.632812-13.257812 6.632812-20.769531 0-7.128906-2.207031-13.847656-6.039062-19.800781-.664063-.039063-1.289063-.199219-1.960938-.199219h-48c-17.671875 0-32 14.328125-32 32v24.078125c9.070312 4.976563 20.097656 7.921875 32 7.921875 17.671875 0 48-14.328125 48-32zm0 0" fill="#c18e59"/><path d="m264 232v24h24l-48 32-48-32h24v-24" fill="#568e53"/><g fill="#d1a339"><path d="m232 120h16v-16h16c3.230469 0 6.160156-1.945312 7.390625-4.9375 1.242187-2.992188.554687-6.429688-1.734375-8.71875l-34.34375-34.34375h36.6875v-16h-24v-16h-16v16h-16c-3.230469 0-6.160156 1.945312-7.390625 4.9375-1.242187 2.992188-.554687 6.429688 1.734375 8.71875l34.34375 34.34375h-36.6875v16h24zm0 0"/><path d="m440 136h-24v-16h-16v16h-16c-3.230469 0-6.160156 1.945312-7.390625 4.9375-1.242187 2.992188-.554687 6.429688 1.734375 8.71875l34.34375 34.34375h-36.6875v16h24v16h16v-16h16c3.230469 0 6.160156-1.945312 7.390625-4.9375 1.242187-2.992188.554687-6.429688-1.734375-8.71875l-34.34375-34.34375h36.6875zm0 0"/><path d="m80 120h-16v16h-16c-3.230469 0-6.160156 1.945312-7.390625 4.9375-1.242187 2.992188-.554687 6.429688 1.734375 8.71875l34.34375 34.34375h-36.6875v16h24v16h16v-16h16c3.230469 0 6.160156-1.945312 7.390625-4.9375 1.242187-2.992188.554687-6.429688-1.734375-8.71875l-34.34375-34.34375h36.6875v-16h-24zm0 0"/></g><path d="m256 448h80v16h-80zm0 0" fill="#976947"/><path d="m144 448h80v16h-80zm0 0" fill="#976947"/><path d="m232 320h16v120h-16zm0 0" fill="#976947"/><path d="m248 200h16v16h-16zm0 0" fill="#568e53"/><path d="m216 200h16v16h-16zm0 0" fill="#568e53"/><path d="m264 456c0 13.253906-10.746094 24-24 24s-24-10.746094-24-24 10.746094-24 24-24 24 10.746094 24 24zm0 0" fill="#8bd2f5"/></svg>