<?xml version="1.0" encoding="utf-8"?>
<!-- Generator: Adobe Illustrator 17.0.0, SVG Export Plug-In . SVG Version: 6.00 Build 0)  -->
<!DOCTYPE svg PUBLIC "-//W3C//DTD SVG 1.1//EN" "http://www.w3.org/Graphics/SVG/1.1/DTD/svg11.dtd">
<svg version="1.1" id="Layer_1" xmlns="http://www.w3.org/2000/svg" xmlns:xlink="http://www.w3.org/1999/xlink" x="0px" y="0px"
	 width="960px" height="560px" viewBox="0 0 960 560" enable-background="new 0 0 960 560" xml:space="preserve">
<ellipse opacity="0.5" fill="#008484" cx="643.766" cy="464.374" rx="32.449" ry="17.26"/>
<ellipse opacity="0.5" fill="#008484" cx="270.602" cy="336.213" rx="30.498" ry="16.223"/>
<ellipse opacity="0.5" fill="#008484" cx="526" cy="309.839" rx="35.989" ry="19.143"/>
<ellipse opacity="0.5" fill="#008484" cx="336.132" cy="427.638" rx="35.386" ry="18.823"/>
<ellipse opacity="0.5" fill="#008484" cx="229.305" cy="453.366" rx="39.892" ry="21.219"/>
<ellipse opacity="0.5" fill="#008484" cx="367.49" cy="255.959" rx="39.892" ry="21.219"/>
<ellipse opacity="0.5" fill="#008484" cx="709.157" cy="408.816" rx="39.892" ry="21.219"/>
<ellipse opacity="0.5" fill="#008484" cx="548.475" cy="425.374" rx="41.75" ry="22.208"/>
<ellipse opacity="0.5" fill="#008484" cx="614.464" cy="311.602" rx="37.611" ry="20.006"/>
<polygon opacity="0.5" fill="#008484" points="540.011,473.814 447.518,527.487 354.118,473.839 446.804,419.941 "/>
<g>
	<path fill="#D87745" d="M271.383,153.072c0,0,2.486-1.507,5.723,0.278c3.236,1.785,6.272,8.443,8.815,12.726
		c2.543,4.283,9.207,18.577,10.073,20.845c0.865,2.268,7.369,9.999,7.369,9.999l-10.658,2.573l-14.577-24.223
		c0,0-6.833-20.393-6.789-21.296L271.383,153.072z"/>
	<path fill="#FFA08D" d="M281.651,248.39c0,0-1.665,10.499-1.734,15.198c-0.069,4.699-0.147,6.776-1.172,12.558
		c-0.966,5.451-2.411,27.327-2.448,34.56c-0.037,7.233,4.398,13.959,6.05,16.571c1.652,2.612-3.593,6.698-7.576,2.887
		c-3.983-3.811-4.399-4.554-6.647-5.749c-2.248-1.194-3.914-6.339-2.136-12.04c1.777-5.701,0.911-16.956-0.978-26.814
		c-1.889-9.858,0.859-22.384-0.248-25.332C263.655,257.281,281.651,248.39,281.651,248.39z"/>
	<path fill="#E53935" d="M282.347,327.276c0,0,4.903,4.083,6.541,6.077c1.638,1.993-3.437,4.926-8.264,3.244
		c-4.827-1.682-8.793-6.233-12.623-9.657c-3.756-3.357-4.781-4.558-4.594-8.407c0.092-1.895,2.045-3.892,2.045-3.892
		s1.197,7.808,6.699,11.08C277.403,328.844,279.566,329.324,282.347,327.276z"/>
	<path fill="#FFC5B3" d="M266.319,256.869c0,0-0.586,10.551-0.655,15.25c-0.069,4.699-0.812,6.2-2.205,11.558
		c-1.392,5.358-2.457,28.275-2.494,35.507c-0.037,7.232,4.398,13.959,6.05,16.571c1.652,2.613-3.593,6.698-7.576,2.888
		c-3.983-3.811-4.399-4.554-6.647-5.749c-2.248-1.194-3.914-6.339-2.136-12.04c1.777-5.701,0.911-16.956-0.978-26.814
		c-1.889-9.858,1.255-22.446,0.566-25.518c-1.693-7.553-0.195-24.196,4.055-26.742C258.753,239.11,266.319,256.869,266.319,256.869z
		"/>
	<path fill="#E53935" d="M267.015,335.755c0,0,4.903,4.083,6.541,6.077c1.638,1.993-3.437,4.926-8.264,3.244
		c-4.827-1.682-8.793-6.233-12.623-9.656c-3.756-3.357-4.781-4.558-4.593-8.407c0.092-1.895,2.045-3.892,2.045-3.892
		s1.197,7.808,6.699,11.08C262.071,337.323,264.234,337.803,267.015,335.755z"/>
	<path fill="#723F3F" d="M284.528,212.566c0,0,0.43,7.485,0.623,17.154c0.237,11.876-2.491,20.719-2.491,20.719
		s-9.166-4.016-12.516-4.016c0,11.835-1.201,23.931-2.816,32.481c-3.087,16.345-2.622,37.631-5.446,39.689
		c-6.214,4.528-13.048-2.706-13.048-2.706l-0.779-33.575l0.998-13.831c0,0-0.67-7.266-2.821-23.052
		c-1.283-9.413,0.013-24.095,2.97-34.579C254.192,193.161,284.135,203.334,284.528,212.566z"/>
	<path fill="#633333" d="M270.144,227c0,0,0.083,21.735-0.122,26.093c-0.206,4.358-2.084,20.626-2.694,25.009
		c-0.61,4.383-1.876,13.43-1.876,13.43v15.234c0,0,4.771,3.608,8.418,2.806c3.647-0.802,5.288-2.005,5.288-2.005
		s3.194-33.676,2.881-38.687c-0.313-5.011,4.868-40.19,4.868-40.19L270.144,227z"/>
	<path fill="#E53935" d="M242.854,168.612c0.929-3.702,12.258-11.465,12.258-11.465s6.325,5.043,8.555,6.791
		c2.135,1.673,5.696,5.962,5.998,6.328c0.018-0.002,0.035-0.005,0.053-0.007c-0.046-0.707-0.472-6.362-2.686-12.396
		c-0.697-1.899,0.362-7.453,0.362-7.453s0.886-0.221,2.168-0.45c1.926,2.132,5.71,7.795,7.762,10.141
		c1.981,2.264,9.675,9.332,7.51,16.642c-0.643,2.172-1.438,4.056-2.588,6.747c-1.291,3.019-1.21,8.773-1.046,11.895
		c0.189,3.586,3.526,13.042,3.526,13.042s-8.232,9.535-17.058,9.144c-10.303-0.456-17.609-7.731-17.609-7.731
		s2.467-15.586,2.136-22.023C252.195,187.815,239.786,180.833,242.854,168.612z"/>
	<g>
		<path fill="#4F2525" d="M280.563,136.682c0,0,0.533,3.507-0.433,8.658c-0.483,2.572-2.136,5.665-2.136,5.665l-11.258-5.229
			L280.563,136.682z"/>
		<path fill="#D87745" d="M268.058,151.266c0,0-0.084,6.371,1.044,9.769c0.941,1.471,1.895,6.109,1.333,10.15
			c-2.09-1.183-5.522-4.792-7.484-6.66c-2.374-2.261-8.652-6.757-8.652-6.757l1.134-18.826L268.058,151.266z"/>
		<path fill="#D87745" d="M261.56,128.533c4.318-2.969,14.23-3.507,17.334,6.859c3.256,10.87-7.063,23.746-12.107,21.229
			c-2.825-1.41-8.673-6.215-10.108-11.925C255.064,138.269,258.205,130.839,261.56,128.533z"/>
		<path fill="#4F2525" d="M252.823,130.998c1.88-3.097,6.142-7.251,9.182-8.333c6.09-2.169,10.094,0.144,15.468,5.593
			c3.232,3.277,4.608,7.026,4.325,12.848c0,0-8.992,5.779-14.273,6.608c-2.448,0.384-5.731-1.222-7.647-2.281
			c-0.362,2.66-0.742,5.678-0.812,7.118c-0.14,2.883,0.588,7.124,0.588,7.124s-7.761-1.869-9.897-5.364
			C247.62,150.815,249.419,136.604,252.823,130.998z"/>
	</g>
	<g>
		<g>
			<path fill="#F2BB40" d="M292.046,196.071c0.544-0.314,1.08-0.579,1.609-0.813l15.02,8.672l-0.876,1.765
				c0.069,0.761,0.113,1.546,0.113,2.371c0,0.076-0.008,0.153-0.008,0.229l-18.28-10.554
				C290.416,197.122,291.22,196.548,292.046,196.071z"/>
			<path fill="#F2BB40" d="M292.046,238.382c-0.213,0.123-0.42,0.212-0.632,0.322l-1.526,3.074l-12.051-6.958
				c-0.772-1.617-1.294-3.57-1.522-5.817l15.974,9.222C292.207,238.274,292.128,238.335,292.046,238.382z"/>
			<path fill="#F2BB40" d="M302.466,195.283l0.005-0.011l8.168,4.702l-1.11,2.237l-13.441-7.76
				C298.48,193.913,300.654,194.22,302.466,195.283z"/>
			<path fill="#F2BB40" d="M292.943,228.416l-15.939-9.202c0.322-1.472,0.731-2.939,1.223-4.386l12.015,6.937l1.916-1.107
				l-13.271-7.662c0.525-1.338,1.123-2.645,1.774-3.915l15.33,8.851l1.916-1.106l-16.329-9.427c0.719-1.259,1.495-2.461,2.321-3.599
				l17.84,10.3l1.916-1.106l-18.579-10.727c0.95-1.17,1.952-2.244,2.998-3.208l19.414,11.209l0.35-0.202
				c-0.68,10.269-6.45,21.495-13.782,26.968l-17.861-10.312c-0.001-0.115-0.015-0.218-0.015-0.334c0-1.697,0.166-3.434,0.449-5.178
				l14.399,8.313L292.943,228.416z"/>
			<polygon fill="#F48F3B" points="311.408,203.295 309.492,204.401 308.675,203.93 309.529,202.21 			"/>
			<path fill="#F48F3B" d="M296.088,194.45l13.441,7.76l-0.854,1.72l-15.02-8.672C294.488,194.89,295.298,194.627,296.088,194.45z"
				/>
			<path fill="#F48F3B" d="M309.405,209.161l-1.567,0.904c0.039-0.594,0.061-1.185,0.066-1.771L309.405,209.161z"/>
			<path fill="#F48F3B" d="M288.075,199.059c0.508-0.468,1.024-0.907,1.55-1.318l18.28,10.554c-0.005,0.586-0.026,1.177-0.066,1.771
				l-0.35,0.202L288.075,199.059z"/>
			<path fill="#F48F3B" d="M301.74,214.1l-17.84-10.3c0.382-0.527,0.774-1.038,1.177-1.533l18.579,10.727L301.74,214.1z"/>
			<path fill="#F48F3B" d="M295.992,217.932l-15.33-8.851c0.293-0.572,0.601-1.13,0.917-1.683l16.329,9.427L295.992,217.932z"/>
			<path fill="#F48F3B" d="M290.243,221.765l-12.015-6.937c0.209-0.614,0.424-1.227,0.66-1.831l13.271,7.662L290.243,221.765z"/>
			<path fill="#F48F3B" d="M292.943,228.416l-1.916,1.106l-14.399-8.313c0.108-0.665,0.23-1.33,0.376-1.995L292.943,228.416z"/>
			<path fill="#F48F3B" d="M300.264,240.618l-1.916,1.106l-6.06-3.499c0.598-0.358,1.187-0.759,1.767-1.192L300.264,240.618z"/>
			<path fill="#F48F3B" d="M292.288,238.226l-15.974-9.222c-0.074-0.728-0.111-1.493-0.12-2.282l17.861,10.312
				C293.475,237.467,292.887,237.868,292.288,238.226z"/>
			<path fill="#F48F3B" d="M289.067,243.433l-6.692-3.878c-1.9-0.857-3.458-2.471-4.538-4.734l12.051,6.958L289.067,243.433z"/>
		</g>
		<g>
			<path fill="#FFED43" d="M315.854,212.629c0,11.684-7.104,25.257-15.866,30.316c-8.763,5.059-15.867-0.311-15.867-11.995
				c0-11.684,7.104-25.257,15.867-30.316C308.751,195.574,315.854,200.945,315.854,212.629z"/>
			<g>
				<path fill="#F2BB40" d="M294.768,241.606c1.726,0,3.601-0.569,5.51-1.696c7.358-4.344,13.422-15.887,13.518-25.731l0,0
					c0.052-5.279-1.637-9.299-4.635-11.029c-2.505-1.447-5.704-1.169-9.008,0.783c-7.357,4.343-13.422,15.886-13.519,25.73
					c-0.052,5.278,1.638,9.298,4.636,11.03C292.328,241.303,293.509,241.606,294.768,241.606z M305.661,203.163
					c1.101,0,2.126,0.261,3.037,0.788c2.701,1.559,4.222,5.284,4.173,10.22l0,0c-0.094,9.556-5.954,20.744-13.063,24.943
					c-3.004,1.773-5.871,2.05-8.076,0.778c-2.701-1.56-4.222-5.284-4.174-10.22c0.095-9.556,5.955-20.745,13.064-24.943
					C302.385,203.688,304.1,203.163,305.661,203.163z"/>
			</g>
		</g>
		<g>
			<path fill="#F48F3B" d="M303.896,215.403c-0.659-0.549-1.225-0.7-1.993-0.257c-0.878,0.507-1.353,1.316-1.353,2.583
				c0,2.674,4.828-0.338,4.828,5.037c0,2.703-0.97,5.345-2.853,7.051v2.928l-1.774,1.024v-2.815
				c-1.079,0.428-2.359,0.433-3.219-0.281l1.171-3.461c0.932,0.532,1.737,0.63,2.615,0.123c1.024-0.591,1.482-1.503,1.482-2.798
				c0-2.899-4.828-0.055-4.828-5.122c0-2.757,1.06-5.283,2.78-6.811v-2.899l1.774-1.024v2.842c1.17-0.422,2.011-0.008,2.724,0.734
				L303.896,215.403z"/>
		</g>
	</g>
	<path fill="#D87745" d="M242.854,168.612c1.744-5.449,8.8-0.075,9.959,2.228c2.639,5.246,3.125,13.858,3.999,18.183
		c0.581,2.87,0.959,11.081,0.959,11.081s10.867,14.416,14.763,17.544c3.895,3.128,10.487,2.908,12.38,4.174
		c1.893,1.266,1.728,2.994,0.125,3.314c-1.603,0.32-5.404,0.708-5.404,0.708s3.259,3.702,4.187,6.752
		c0.928,3.051,1.023,8.863-5.982,3.992c-7.005-4.872-9.269-12.324-11.311-13.997c-2.042-1.673-14.448-10.627-16.469-12.754
		C248.545,208.246,239.513,179.047,242.854,168.612z"/>
	<path fill="#FFC5B3" d="M316.065,209.18c0,0-3.78,0-4.657,6.127c-0.742,5.182,2.251,6.552,5.195,3.906
		C319.547,216.568,317.553,211.044,316.065,209.18z"/>
</g>
<g>
	<path fill="#2078A5" d="M387.165,89.885c5.66,7.233,14.902,17.84,18.393,23.728c-5.566-1.772-9.858,2.735-12.986,7.171
		c-4.076-4.431-14.667-14.123-14.667-14.123l-2.678-21.167C375.227,85.494,381.226,82.295,387.165,89.885z"/>
	<g>
		<path fill="#723F3F" d="M391.117,238.221c0,0,2.428,2.64,5.671,5.802c3.001,2.926,3.931,3.768,6.716,6.487
			c1.626,1.588,0.287,3.047-2.813,2.928c-2.726-0.105-8.896-1.432-12.349-2.672c-2.453-0.881-6.948-3.367-9.245-4.819
			c-2.296-1.453-2.744-3.47-2.744-3.47v-4.882L391.117,238.221z"/>
		<path fill="#723F3F" d="M352.535,244.3c0,0,0.562,5.003,0.908,11.288c0.346,6.286-0.543,11.835-2.464,12.527
			c-1.921,0.692-7.392,0.604-10.505-8.123c-3.112-8.727-1.256-17.191-1.256-17.191L352.535,244.3z"/>
		<path fill="#633333" d="M346.311,158.296c-1.148-17.909,8.725-27.323,8.725-27.323c-0.786-6.035,27.209,2.411,27.209,2.411
			s5.994,32.445,8.526,49.529c2.878,19.417,1.618,54.079,1.618,54.079s-0.363,4.221-7.596,4.194
			c-5.55-0.021-10.126-4.537-10.126-4.537l-0.574-40.466l-6.429-31.916c0,0-1.1,29.782-5.175,38.377
			c-7.453,15.719-7.453,43.424-7.453,43.424s-9.389,3.351-15.818,0.136c-6.429-3.214-5.166-6.805-5.166-6.805
			s1.624-21.484,9.89-40.082C344.63,185.195,346.838,166.522,346.311,158.296z"/>
		<path fill="#3EA0C6" d="M384.189,144.08c-6.184,3.23-20.882,11.078-39.3,2.799c-5.647-2.539-1.79-10.552-0.94-14.762
			c1.899-9.401-4.056-24.939-3.277-35.866c2.828-9.305,14.842-12.545,14.842-12.545l14.78-0.27c0,0,7.564,0.24,9.45,2.406
			c8.971,10.304,4.803,32.78,5.113,42.958C385.031,134.492,387.747,140.013,384.189,144.08z"/>
		<g>
			<path fill="#FFAD97" d="M368.634,81.33l1.329,7.745c0,0-0.05,2.551-1.34,4.858c-3.068-0.957-5.13-1.6-7.942-3.075
				c-3.365-1.765-5.646-4.493-5.646-4.493l2.374-13.19L368.634,81.33z"/>
			<path fill="#FFC5B3" d="M356.094,58.677c3.195-4.072,12.379-7.502,18.363,1.353c6.275,9.286,0.345,24.467-5.151,23.581
				c-3.078-0.496-10.008-3.301-13.045-8.259C352.843,69.771,353.613,61.841,356.094,58.677z"/>
		</g>
	</g>
	<g>
		<path fill="#2078A5" d="M373.047,148.841c4.302-5.851,1.848-12.39,0.316-16.973c-0.139-0.413-0.271-0.808-0.389-1.179
			c-0.276-0.858-0.559-1.686-0.834-2.491c-1.117-3.27-2.081-6.094-1.735-8.599c0.097-0.717,0.236-1.613,0.391-2.612
			c0.54-3.498,1.28-8.29,1.167-11.018c-0.224-5.382-2.864-12.206-2.973-12.482l-0.917,0.278c0.028,0.066,2.786,7.013,3.001,12.243
			c0.109,2.642-0.624,7.383-1.157,10.844c-0.155,1.004-0.295,1.905-0.394,2.626c-0.373,2.713,0.624,5.631,1.777,9.007
			c0.273,0.799,0.554,1.624,0.827,2.475c0.121,0.375,0.254,0.773,0.392,1.19c1.475,4.41,3.398,11.527-0.63,17.005L373.047,148.841z"
			/>
	</g>
	<path fill="#2078A5" d="M334.37,112.855c2.294-12.619,3.306-21.562,11.622-22.661c4.561-0.602,7.576,10.631,7.216,16.231
		c-0.352,5.484-5.261,24.082-5.261,24.082l3.053,4.069c-4.184,2.639-10.699,11.08-11.216,11.779c-3.09-2.06-4.652-5.566-5.198-8.561
		C333.717,133.027,332.258,124.474,334.37,112.855z"/>
	<path fill="#2078A5" d="M372.311,82.599l4.044,5.902l-7.732,5.432c0,0,1.105-6.312,0.372-10.497
		C370.565,84.032,371.978,82.973,372.311,82.599z"/>
	<path fill="#FFC5B3" d="M431.859,139.05c0,0,2.8,3.003-3.652,4.03c-3.26,0.519-7.708-7.784-7.914-6.954
		c-1.112,4.474-4.803,3.541-4.288,1.825c0.515-1.716,1.139-4.349,0.405-5.522c-1.852-2.963-8.387-4.391-12.421-6.408
		c-2.691-1.346-8.411-5.236-8.411-5.236s2.918-2.994,5.665-5.102c2.746-2.108,3.862-2.158,6.78,0.035
		c2.918,2.193,13.225,12.886,15.364,14.288C430.356,134.575,431.859,139.05,431.859,139.05z"/>
	<path fill="#FFFFFF" d="M408.022,115.718c0,0-0.379-3.345-2.464-5.92c-2.085-2.575-7.578-1.459-9.982,0.257
		c-2.403,1.717-5.229,6.715-4.042,9.823c1.69,4.425,6.874,2.708,6.874,2.708s-0.515-3.948,2.832-6.904
		C403.236,113.921,408.022,115.718,408.022,115.718z"/>
	<g>
		<polygon fill="#0AA5A5" points="464.959,138.098 366.723,194.815 366.723,137.018 464.959,80.302 		"/>
		<g>
			<path fill="#10C1BC" d="M461.715,127.749V94.396c-2.686,0.283-4.826-1.271-5.84-4.226l-80.067,46.227
				c-1.015,4.126-3.154,8.151-5.84,10.97v33.353c2.686-0.283,4.826,1.271,5.84,4.226l80.067-46.227
				C456.889,134.593,459.028,130.569,461.715,127.749z"/>
		</g>
		<path fill="#0AA5A5" d="M429.19,126.794c0,9.83-5.976,21.249-13.349,25.505c-7.372,4.257-13.349-0.262-13.349-10.091
			c0-9.83,5.976-21.249,13.349-25.505C423.213,112.446,429.19,116.964,429.19,126.794z"/>
		<path fill="#0AA5A5" d="M393.364,150.535c0,4.758-2.893,10.284-6.461,12.344c-3.568,2.06-6.461-0.127-6.461-4.884
			s2.893-10.284,6.461-12.344C390.471,143.591,393.364,145.778,393.364,150.535z"/>
		<path fill="#24E0D6" d="M391.278,151.774c0,3.178-1.932,6.87-4.316,8.247c-2.384,1.376-4.316-0.085-4.316-3.263
			c0-3.178,1.932-6.87,4.316-8.247C389.346,147.135,391.278,148.595,391.278,151.774z"/>
		<path fill="#0AA5A5" d="M451.043,117.234c0,4.758-2.893,10.284-6.461,12.344c-3.568,2.06-6.461-0.127-6.461-4.884
			c0-4.758,2.893-10.284,6.461-12.344C448.151,110.29,451.043,112.476,451.043,117.234z"/>
		<path fill="#24E0D6" d="M448.899,118.472c0,3.178-1.932,6.87-4.316,8.247c-2.384,1.376-4.316-0.085-4.316-3.263
			c0-3.178,1.932-6.87,4.316-8.247C446.966,113.833,448.899,115.294,448.899,118.472z"/>
		<g>
			<path fill="#FFFFFF" d="M418.164,127.864c-0.68-0.568-1.266-0.724-2.059-0.266c-0.907,0.524-1.398,1.359-1.398,2.67
				c0,2.765,4.987-0.348,4.987,5.211c0,2.794-1.001,5.526-2.946,7.289v3.026l-1.833,1.058v-2.91
				c-1.114,0.439-2.437,0.446-3.325-0.293l1.209-3.579c0.963,0.55,1.795,0.651,2.702,0.128c1.057-0.61,1.53-1.553,1.53-2.892
				c0-2.997-4.987-0.059-4.987-5.298c0-2.853,1.096-5.464,2.871-7.042v-2.997l1.833-1.058v2.939
				c1.209-0.436,2.078-0.006,2.814,0.762L418.164,127.864z"/>
		</g>
		<polygon fill="#028985" points="366.723,194.815 361.517,191.69 361.517,134.159 366.723,137.018 		"/>
		<polygon fill="#24E0D6" points="361.517,134.159 366.723,137.018 464.959,80.302 459.832,77.358 		"/>
		<polygon fill="#0AA5A5" points="374.731,143.922 374.731,147.016 399.075,132.88 399.075,129.855 		"/>
		<polygon fill="#0AA5A5" points="430.722,111.597 430.722,114.691 455.067,100.556 455.067,97.53 		"/>
		<polygon fill="#0AA5A5" points="376.585,178.218 376.585,181.312 452.942,137.526 452.942,134.501 		"/>
	</g>
	<path fill="#FFC5B3" d="M351.377,138.044c0,0,7.565,10.118,13.747,15.814c1.424,1.312,3.652,1.099,4.7,2.328
		c2.893,4.039-3.942,1.242-3.942,1.242s2.008,3.068,4.966,4.506c3.408,1.657,2.841,7.702-1.575,6.714
		c-3.09-0.691-7.101-2.781-8.772-7.562c-1.903-5.444-15.982-11.073-18.91-19.267C340.709,139.351,351.377,138.044,351.377,138.044z"
		/>
	<path fill="#FFFFFF" d="M353.728,139.451c0.629-0.944,1.158-2.99,0-4.351c-2.153-2.53-4.299-3.676-4.299-3.676
		s-8.847,3.316-10.643,10.086c-1.796,6.771,5.806,8.142,6.965,5.72C349.022,140.394,351.618,142.622,353.728,139.451z"/>
	<path fill="#2078A5" d="M355.9,81.561c0,0,4.838,4.317,7.327,6.291c2.489,1.974,5.397,6.081,5.397,6.081l-10.032,0.399
		c0,0-4.255-8.359-4.206-9.495C354.435,83.701,355.9,81.561,355.9,81.561z"/>
	<path fill="#723F3F" d="M376.813,63.136c-1.274,2.034-3.26,4.418-8.377,4.688c-4.187,0.221-7.496-1.031-7.496-1.031l0.359,5.593
		c0,0-0.841,0.032-1.534-0.211c-0.553-2.124-1.464-2.622-2.502-1.726c-1.173,1.014-1.003,4.903-1.003,4.903
		s-4.43-3.828-4.411-10.229c0.011-3.99,3.499-12.632,10.808-13.538c7.309-0.906,12.515,2.915,14.3,6.819
		C377.852,60.36,377.389,62.217,376.813,63.136z"/>
	
		<ellipse transform="matrix(-0.9214 0.3887 -0.3887 -0.9214 750.9322 39.0433)" fill="#FFFFFF" cx="371.517" cy="95.471" rx="0.815" ry="1.187"/>
	
		<ellipse transform="matrix(-0.9898 0.1424 -0.1424 -0.9898 759.3113 157.2855)" fill="#FFFFFF" cx="374.029" cy="105.806" rx="0.815" ry="1.187"/>
	<ellipse fill="#FFFFFF" cx="373.214" cy="115.923" rx="0.815" ry="1.187"/>
	<path fill="#723F3F" d="M359.765,72.175c0,0-0.438,7.117,3.899,10.425c4.337,3.308,9.437,2.218,10.365,0.528
		c1.198-2.181,1.199-4.275,1.199-4.275s-4.212,3.274-7.154,2.384c-6.009-1.818-6.774-8.852-6.774-8.852L359.765,72.175z"/>
</g>
<g>
	<g>
		<path fill="#E53935" d="M511.785,293.431c0,0-2.486,2.866-5.819,6.31c-3.084,3.187-4.041,4.106-6.903,7.067
			c-1.671,1.729-0.21,3.231,3.065,3.01c2.879-0.195,9.364-1.788,12.977-3.205c2.567-1.007,7.245-3.774,9.629-5.382
			c2.384-1.607,2.796-3.754,2.796-3.754l-0.15-5.163L511.785,293.431z"/>
		<path fill="#E53935" d="M533.168,304.972c0,0-2.486,2.867-5.819,6.31c-3.084,3.187-4.041,4.106-6.903,7.066
			c-1.672,1.729-0.21,3.231,3.065,3.01c2.879-0.195,9.364-1.787,12.978-3.206c2.567-1.007,7.244-3.774,9.628-5.381
			c2.384-1.607,2.796-3.754,2.796-3.754l-0.15-5.163L533.168,304.972z"/>
		<path fill="#2078A5" d="M554.85,204.895c0.663-18.976-10.068-28.628-10.068-28.628c0.645-6.406-31.745,5.185-31.745,5.185
			s-0.756,41.302-1.005,59.573c-0.282,20.641-2.14,51.539-2.14,51.539s2.832,4.087,10.481,3.865
			c4.388-0.128,8.742-6.518,8.742-6.518l1.354-50.437l1.981-27.608c0,0,1.411,23.788,1.747,35.35
			c0.311,10.702-2.9,55.759-2.9,55.759s3.511,5.898,11.112,5.677c8.16-0.238,10.784-5.62,10.784-5.62s-1.355-29.512-0.632-51.033
			C553.096,236.117,554.546,213.611,554.85,204.895z"/>
		<path fill="#FC5D51" d="M521.637,121.601c0,0-6.013,0.08-10.144,8.42c-4.132,8.339-6.397,14.67-6.397,14.67
			s0.623,4.473,12.475,8.298C526.791,144.153,528.9,125.392,521.637,121.601z"/>
		<path fill="#E53935" d="M521.401,124.112c0,0-4.541,4.476-7.964,18.298c-2.082,8.408-0.578,48.905-0.578,48.905
			s8.338,9.344,23.501,8.902c10.573-0.308,15.593-2.969,17.378-7.038c-1.72-14.416,3.167-46.352,2.28-51.794
			c-0.888-5.442-14.254-15.567-14.254-15.567S530.4,120.266,521.401,124.112z"/>
		<g>
			<path fill="#D87745" d="M528.872,124.185l-1.458,10.282c0,0,5.381,5.695,10.353,1.176c4.972-4.519,5.642-6.551,5.642-6.551
				l-2.916-13.876L528.872,124.185z"/>
			<path fill="#D87745" d="M535.369,99.996c-4.451-3.19-14.796-3.953-18.25,6.813c-3.623,11.29,6.897,24.954,12.217,22.426
				c2.979-1.416,9.187-6.318,10.803-12.253C541.959,110.3,538.827,102.474,535.369,99.996z"/>
			<path fill="#723F3F" d="M516.33,110.383c1.849,1.779,4.527,3.736,9.904,2.689c4.4-0.857,7.507-3.013,7.507-3.013l1.078,5.894
				c0,0,0.88-0.185,1.536-0.617c0.023-2.346,0.838-3.099,2.147-2.439c1.479,0.747,1.638,4.084,1.638,4.084s4.275-4.377,2.596-11.012
				c-1.047-4.135-6.905-12.194-14.721-11.237c-7.816,0.956-12.223,6.269-13.062,10.781
				C514.533,107.774,515.495,109.58,516.33,110.383z"/>
		</g>
		<path fill="#FC5D51" d="M551.797,135.45c3.956,0.576,7.545,3.459,8.654,13.399c0.715,6.409-0.256,9.127-0.47,16.174
			c-3.742,2.687-14.3,0.973-14.3,0.973s-0.823-9.14-0.731-14.347C545.096,143.39,547.484,134.822,551.797,135.45z"/>
		<path fill="#D87745" d="M498.905,188.835c-3.557-1.435-7.934,5.289-11.712,4.715c0.938-12.979,7.859-23.606,9.409-28.743
			c1.13-3.747,8.494-20.117,8.494-20.117l7.469,6.368l-0.211,8.782l-6.527,9.973L498.905,188.835z"/>
		<path fill="#D87745" d="M545.534,164.224c0,0,0.159,12.916,0.424,14.557c0.126,0.78,0.19,14.294-2.83,16.602
			c-14.716,11.246,3.247,6.875,12.939-6.217c4.429-5.982,4.015-20.862,3.977-25.69C552.004,165.604,545.534,164.224,545.534,164.224
			z"/>
		<g>
			<g>
				<path fill="#F2BB40" d="M514.414,172.241c-0.544-0.314-1.08-0.579-1.609-0.813l-15.02,8.672l0.876,1.765
					c-0.069,0.761-0.113,1.546-0.113,2.371c0,0.076,0.008,0.153,0.009,0.229l18.279-10.554
					C516.044,173.292,515.239,172.718,514.414,172.241z"/>
				<path fill="#F2BB40" d="M514.414,214.552c0.213,0.123,0.42,0.211,0.632,0.322l1.526,3.074l12.051-6.958
					c0.772-1.617,1.294-3.57,1.522-5.817l-15.974,9.222C514.253,214.444,514.332,214.505,514.414,214.552z"/>
				<path fill="#F2BB40" d="M503.994,171.453l-0.005-0.011l-8.168,4.702l1.11,2.237l13.441-7.76
					C507.979,170.083,505.806,170.39,503.994,171.453z"/>
				<path fill="#F2BB40" d="M513.517,204.586l15.939-9.202c-0.322-1.472-0.731-2.939-1.224-4.386l-12.015,6.937l-1.916-1.107
					l13.271-7.662c-0.524-1.338-1.123-2.645-1.773-3.915l-15.33,8.851l-1.916-1.106l16.329-9.427
					c-0.719-1.259-1.495-2.461-2.321-3.599l-17.84,10.3l-1.916-1.106l18.579-10.727c-0.951-1.17-1.952-2.244-2.998-3.208
					l-19.414,11.209l-0.35-0.202c0.68,10.269,6.45,21.495,13.783,26.968l17.861-10.312c0.001-0.115,0.015-0.218,0.015-0.334
					c0-1.697-0.166-3.434-0.449-5.178l-14.399,8.313L513.517,204.586z"/>
				<polygon fill="#F48F3B" points="495.052,179.465 496.968,180.571 497.784,180.1 496.931,178.38 				"/>
				<path fill="#F48F3B" d="M510.372,170.62l-13.441,7.76l0.853,1.72l15.02-8.672C511.972,171.06,511.161,170.797,510.372,170.62z"
					/>
				<path fill="#F48F3B" d="M497.055,185.331l1.567,0.904c-0.039-0.594-0.061-1.185-0.066-1.771L497.055,185.331z"/>
				<path fill="#F48F3B" d="M518.385,175.229c-0.507-0.468-1.024-0.907-1.55-1.318l-18.279,10.554
					c0.005,0.586,0.026,1.177,0.066,1.771l0.35,0.202L518.385,175.229z"/>
				<path fill="#F48F3B" d="M504.72,190.27l17.84-10.3c-0.382-0.527-0.774-1.038-1.177-1.533l-18.579,10.727L504.72,190.27z"/>
				<path fill="#F48F3B" d="M510.468,194.102l15.33-8.851c-0.293-0.572-0.601-1.13-0.917-1.683l-16.329,9.427L510.468,194.102z"/>
				<path fill="#F48F3B" d="M516.217,197.934l12.015-6.937c-0.209-0.614-0.423-1.227-0.661-1.831l-13.271,7.662L516.217,197.934z"/>
				<path fill="#F48F3B" d="M513.517,204.586l1.916,1.106l14.399-8.313c-0.108-0.665-0.231-1.33-0.376-1.995L513.517,204.586z"/>
				<path fill="#F48F3B" d="M506.195,216.788l1.916,1.106l6.06-3.499c-0.598-0.358-1.187-0.759-1.767-1.192L506.195,216.788z"/>
				<path fill="#F48F3B" d="M514.171,214.395l15.974-9.222c0.074-0.728,0.111-1.493,0.12-2.282l-17.861,10.312
					C512.984,213.637,513.573,214.038,514.171,214.395z"/>
				<path fill="#F48F3B" d="M517.393,219.603l6.692-3.878c1.9-0.857,3.458-2.472,4.538-4.734l-12.051,6.958L517.393,219.603z"/>
			</g>
			<g>
				<path fill="#FFED43" d="M490.605,188.798c0,11.684,7.104,25.257,15.867,30.316c8.763,5.059,15.867-0.311,15.867-11.995
					c0-11.684-7.104-25.257-15.867-30.316C497.709,171.744,490.605,177.115,490.605,188.798z"/>
				<g>
					<path fill="#F2BB40" d="M511.691,217.775c-1.726,0-3.601-0.569-5.51-1.696c-7.358-4.344-13.422-15.887-13.518-25.73l0,0
						c-0.052-5.279,1.637-9.3,4.635-11.03c2.505-1.447,5.704-1.169,9.008,0.783c7.357,4.343,13.422,15.886,13.519,25.731
						c0.052,5.278-1.638,9.298-4.636,11.029C514.132,217.472,512.951,217.775,511.691,217.775z M500.799,179.332
						c-1.101,0-2.126,0.261-3.038,0.788c-2.701,1.559-4.222,5.284-4.173,10.22l0,0c0.094,9.556,5.954,20.744,13.063,24.943
						c3.004,1.773,5.871,2.05,8.076,0.778c2.701-1.56,4.222-5.284,4.174-10.22c-0.095-9.556-5.955-20.745-13.064-24.943
						C504.075,179.858,502.359,179.332,500.799,179.332z"/>
				</g>
			</g>
		</g>
	</g>
	<path fill="#D87745" d="M518.282,203.034c1.892-1.266,8.484-1.047,12.38-4.174c3.613-2.901,13.924-14.396,15.298-16.209
		c3.281,1.941,12.8,0.918,10.107,6.515c-2.716,5.644-16.182,15.517-18.224,17.19c-2.042,1.673-5.48,6.572-12.485,11.444
		c-7.005,4.872-6.91-0.941-5.982-3.991c0.928-3.051,4.187-6.752,4.187-6.752s-3.801-0.388-5.404-0.708
		C516.554,206.028,516.389,204.299,518.282,203.034z"/>
	<g>
		<path fill="#E53935" d="M515.076,106.325c0,0-9.859,7.381-11.55,8.931c-1.691,1.55,5.157,7.426,11.957,5.041
			c6.799-2.385,18.382-9.426,18.382-9.426L515.076,106.325z"/>
		<path fill="#FC5D51" d="M515.076,106.325c0,0,11.684,6.798,18.788,4.546c7.104-2.253,8.995-4.09,8.995-4.09
			s-1.058-14.956-14.224-14.573C515.469,92.592,515.076,106.325,515.076,106.325z"/>
		
			<ellipse transform="matrix(0.9996 -0.0291 0.0291 0.9996 -2.4743 15.376)" fill="#E53935" cx="527.26" cy="92.735" rx="1.977" ry="1.093"/>
	</g>
	<path fill="#D87745" d="M488.073,187.464c0,0,5.858,4.552,6.734,10.68c0.742,5.182-1.325,7.327-4.202,4.609
		C485.725,198.144,486.585,189.328,488.073,187.464z"/>
	<g>
		<path fill="#F48F3B" d="M508.456,195.276c-0.658-1.309-1.224-2.114-1.992-2.557c-0.878-0.507-1.353-0.246-1.353,1.02
			c0,2.674,4.828,5.235,4.828,10.612c0,2.701-0.97,4.225-2.853,3.756v2.928l-1.774-1.024v-2.814
			c-1.079-0.821-2.359-2.29-3.219-3.997l1.171-2.111c0.932,1.609,1.737,2.635,2.614,3.142c1.024,0.591,1.483,0.208,1.483-1.086
			c0-2.899-4.828-5.63-4.828-10.696c0-2.758,1.06-4.06,2.78-3.603v-2.899l1.774,1.024v2.843c1.171,0.929,2.011,2.316,2.725,3.881
			L508.456,195.276z"/>
	</g>
</g>
<g>
	<g>
		<path fill="#D87745" d="M604.924,166.962c0,0-2.848-14.149-4.708-23.969c-1.098-5.796-1.89-14.017-3.48-21.733
			c-2.723-13.216,2.833-34.977,1.986-37.588c-3.988-12.292-1.191-15.667,3.094-16.764c4.285-1.098-6.369,9.532,1.939,13.471
			c1.939,0.919,1.288,21.017,2.379,31.356c1.277,12.108,4.029,19.31,4.677,22.081c1.031,4.412,7.304,20.299,7.304,20.299
			L604.924,166.962z"/>
		<path fill="#D87745" d="M598.689,231.989c0,0,0.202,10.248-0.354,14.746c-0.555,4.497-0.756,6.492-0.541,12.149
			c0.203,5.335-1.31,26.421-2.231,33.334c-0.921,6.913-6.046,12.752-7.969,15.028c-1.923,2.277,2.547,6.873,6.855,3.759
			c4.308-3.113,4.804-3.768,7.109-4.612c2.305-0.844,4.577-5.537,3.633-11.218c-0.944-5.68,1.371-16.316,4.479-25.482
			c3.108-9.166,2.139-21.494,3.587-24.163C614.703,242.861,598.689,231.989,598.689,231.989z"/>
		<path fill="#4F2525" d="M587.594,307.246c0,0-5.222,3.252-7.051,4.94c-1.829,1.687,2.631,5.159,7.464,4.191
			c4.833-0.968,9.223-4.791,13.334-7.554c4.031-2.71,5.169-3.721,5.499-7.422c0.162-1.822-1.439-3.988-1.439-3.988
			s-2.175,7.3-7.864,9.697C592.109,309.398,589.98,309.57,587.594,307.246z"/>
		<path fill="#D87745" d="M620.076,251.292c0,0,1.562,9.955,2.082,14.406c0.519,4.451,1.346,5.807,3.143,10.763
			c1.796,4.956,4.999,26.598,5.735,33.455c0.736,6.857-2.675,13.64-3.935,16.267c-1.26,2.628,3.943,6.028,7.224,2.051
			c3.28-3.976,3.589-4.719,5.534-6.056c1.944-1.337,2.972-6.368,0.788-11.615c-2.183-5.246-2.482-16.001-1.709-25.523
			c0.774-9.522-3.33-21.178-2.998-24.154c0.818-7.318,3.425-18.722-0.717-20.752C630.882,238.007,620.076,251.292,620.076,251.292z"
			/>
		<path fill="#4F2525" d="M627.101,326.184c0,0-4.096,4.318-5.404,6.357c-1.308,2.039,3.628,4.361,7.889,2.328
			c4.26-2.033,7.453-6.71,10.631-10.305c3.116-3.525,3.938-4.757,3.393-8.391c-0.268-1.788-2.252-3.506-2.252-3.506
			s-0.338,7.515-5.064,11.118C631.784,327.223,629.849,327.874,627.101,326.184z"/>
		<path fill="#FF6D00" d="M636.319,205.541c-0.28-0.992-2.424-6.293-2.714-7.194c-1.278-3.975-1.348-13.664-1.095-18.581
			c0,0,5.071-7.079,5.563-14.432c0.508-7.607-10.935-15.881-10.935-15.881s-3.756,6.068-5.905,7.753
			c-2.059,1.614-4.969,4.852-5.261,5.204c-0.016-0.002,0.008-2.476,2.143-8.295c0.672-1.831-0.349-7.187-0.349-7.187
			s-0.855-0.214-2.091-0.433c-1.857,2.055-5.506,7.516-7.485,9.778c-1.91,2.184-7.528,9.749-5.812,16.896
			c1.464,6.098,2.234,14.116,2.075,17.126c-0.126,2.401-1.715,7.526-2.675,10.437c-1.536,6.537-1.975,11.808-2.84,23.831
			c-0.822,11.424-2.202,22.083-2.202,22.083s22.471,15.038,28.517,12.89c9.778-3.474,14.639-11.152,14.639-11.152
			S641.131,222.597,636.319,205.541z"/>
		<path fill="#633333" d="M618.97,121.213c0,0-1.115-6.733,3.152-8.471c4.266-1.738,8.757-1.82,10.651,4.66
			c1.894,6.48,2.135,15.035,3.627,16.316c5.332,4.576,6.931-2.891,6.931-2.891s4.817,15.403-8.056,13.275
			C622.403,141.973,618.97,121.213,618.97,121.213z"/>
		<g>
			<path fill="#D87745" d="M617.566,146.772c0,0,0.076,5.768-0.945,8.844c-0.852,1.332-1.716,5.531-1.207,9.19
				c1.892-1.071,4.862-4.496,6.776-6.03c4.335-3.473,7.098-6.679,7.098-6.679l-0.291-16.484L617.566,146.772z"/>
			<path fill="#D87745" d="M623.45,126.189c-3.909-2.688-12.884-3.175-15.694,6.21c-2.948,9.841,6.395,21.5,10.961,19.221
				c2.557-1.277,7.852-5.628,9.152-10.797C629.331,135.005,626.487,128.277,623.45,126.189z"/>
		</g>
		<path fill="#D87745" d="M635.227,154.211c-3.684,3.271-8.224,11.422-8.087,16.61c0.089,3.374,5.37,8.945,5.37,8.945
			s4.174-5.245,12.632-16.568c2.024-2.711,9.488-14.89,10.138-16.703c3.901-10.881,4.458-24.983,7.715-35.637
			c1.363-4.459-6.92-8.591-6.587-6.685c0.632,3.626-2.471,10.879-5.454,21.151C644.329,148.132,639.669,150.268,635.227,154.211z"/>
		<path fill="#CE5300" d="M598.007,236.138c0,0,18.092,11.882,23.978,11.84c4.651-0.034,18.048-8.073,18.048-8.073l-0.122-3.633
			c0,0-13.717,7.307-17.926,6.918c-8.637-0.798-23.735-10.386-23.735-10.386L598.007,236.138z"/>
		<path fill="#CE5300" d="M598.938,224.564c0,0,11.441,9.844,21.138,10.642c7.736,0.637,19.621-6.498,19.621-6.498l-0.318-3.479
			c0,0-7.902,4.963-17.394,5.587c-7.365,0.485-22.779-9.926-22.779-9.926L598.938,224.564z"/>
		<path fill="#CE5300" d="M601.778,200.733c0,0,11.819,7.602,17.526,7.602s15.923-5.75,15.923-5.75L633.887,199
			c0,0-6.749,4.413-13.811,5.078c-5.155,0.485-17.078-7.243-17.078-7.243L601.778,200.733z"/>
		<path fill="#0AA5A5" d="M613.014,125.094c0,0,4.548-5.298,9.108-4.994c6.141,0.409,6.102,7.218,4.111,10.099
			C624.242,133.081,613.014,125.094,613.014,125.094z"/>
		<path fill="#723F3F" d="M607.011,135.012c0,0,5.944-2.954,9.879-0.545c2.513,1.539,5.519,2.741,7.535,2.153
			c3.245-3.707,4.975,0.595,3.443,3.657c-0.317,1.287,1.043,2.717,1.043,2.717s3.711-6.314,0.635-13.234
			c-3.076-6.92-11.022-11.053-19.752-3.485C606.319,129.286,607.011,135.012,607.011,135.012z"/>
	</g>
	<g>
		<polygon fill="#0AA5A5" points="584.773,71.795 673.574,123.064 673.574,70.819 584.773,19.55 		"/>
		<g>
			<path fill="#10C1BC" d="M587.706,62.44v-30.15c2.428,0.256,4.362-1.149,5.279-3.82l72.377,41.787
				c0.917,3.73,2.851,7.368,5.279,9.916v30.15c-2.428-0.255-4.362,1.149-5.279,3.82l-72.377-41.787
				C592.068,68.627,590.134,64.989,587.706,62.44z"/>
		</g>
		<path fill="#0AA5A5" d="M617.107,61.577c0,8.886,5.403,19.208,12.067,23.055c6.664,3.848,12.067-0.237,12.067-9.122
			s-5.403-19.208-12.067-23.055C622.51,48.607,617.107,52.691,617.107,61.577z"/>
		<path fill="#0AA5A5" d="M649.492,83.038c0,4.301,2.615,9.297,5.84,11.159c3.226,1.862,5.84-0.114,5.84-4.415
			c0-4.3-2.615-9.297-5.84-11.159C652.107,76.76,649.492,78.737,649.492,83.038z"/>
		<path fill="#24E0D6" d="M651.378,84.157c0,2.873,1.747,6.21,3.902,7.454c2.155,1.244,3.901-0.076,3.901-2.949
			c0-2.873-1.747-6.21-3.901-7.454C653.124,79.964,651.378,81.284,651.378,84.157z"/>
		<path fill="#0AA5A5" d="M597.352,52.935c0,4.3,2.615,9.297,5.84,11.159c3.226,1.862,5.84-0.114,5.84-4.415
			c0-4.301-2.615-9.297-5.84-11.159C599.967,46.657,597.352,48.634,597.352,52.935z"/>
		<path fill="#24E0D6" d="M599.291,54.054c0,2.873,1.747,6.21,3.901,7.454c2.155,1.244,3.902-0.076,3.902-2.949
			c0-2.873-1.747-6.21-3.902-7.454C601.038,49.861,599.291,51.181,599.291,54.054z"/>
		<polygon fill="#028985" points="673.574,123.064 678.279,120.239 678.279,68.235 673.574,70.819 		"/>
		<polygon fill="#24E0D6" points="678.279,68.235 673.574,70.819 584.773,19.55 589.408,16.889 		"/>
		<polygon fill="#0AA5A5" points="666.335,77.059 666.335,79.856 644.329,67.078 644.329,64.343 		"/>
		<polygon fill="#0AA5A5" points="615.722,47.839 615.722,50.636 593.716,37.859 593.716,35.124 		"/>
		<polygon fill="#0AA5A5" points="664.659,108.061 664.659,110.858 595.636,71.278 595.636,68.543 		"/>
		<g>
			<path fill="#FFFFFF" d="M631.596,65.966c-0.666-1.324-1.239-2.139-2.016-2.587c-0.888-0.513-1.368-0.251-1.368,1.031
				c0,2.704,4.883,5.297,4.883,10.733c0,2.733-0.98,4.272-2.885,3.799v2.96l-1.795-1.036v-2.847
				c-1.091-0.828-2.384-2.316-3.253-4.042l1.183-2.133c0.944,1.626,1.757,2.664,2.645,3.177c1.034,0.597,1.498,0.21,1.498-1.099
				c0-2.932-4.882-5.694-4.882-10.818c0-2.79,1.072-4.106,2.81-3.643v-2.932l1.795,1.036v2.875c1.184,0.94,2.035,2.341,2.756,3.925
				L631.596,65.966z"/>
		</g>
	</g>
	<path fill="#D87745" d="M655.413,106.164c0,0-1.81,2.738-2.229,3.958c-0.65,1.894,2.415,4.216,2.415,4.216l3.096,0.947
		c0,0-0.516-2.586-1.052-3.333c-0.424-0.59-2.322-1.83-2.322-1.83S658.014,108.858,655.413,106.164z"/>
	<path fill="#D87745" d="M607.34,78.331c0,0,0.268,3.272,0.048,4.542c-0.342,1.973-4.147,2.532-4.147,2.532l-3.169-0.661
		c0,0,1.698-2.018,2.527-2.414c0.655-0.313,2.917-0.486,2.917-0.486S603.764,79.44,607.34,78.331z"/>
</g>
<g>
	<g>
		<path fill="#D87745" d="M706.85,162.516c0.578,5-0.762,12.318-2.793,15.713c-2.844,4.753-10.588,12.685-14.034,18.898
			c-5.108,9.21-6.036,19.528-4.925,24.667c0.881,4.073,3.679,16.206,3.679,16.206l10.79-4.664c0,0-2.215-7.034-3.099-15.212
			c-0.648-5.991,2.73-13.752,4.392-18.143c4.129-10.909,9.971-17.85,10.49-17.763C713.571,182.593,706.328,158,706.85,162.516z"/>
		<path fill="#2078A5" d="M706.68,233.5c-0.979-1.433-4.91-3.232-6.302-8.317c-5.064,4.905-7.022,5.048-14.431,8.004
			c0.581,5.215,7.412,21.527,7.412,21.527l15.423-16.451C708.782,238.263,708.782,236.576,706.68,233.5z"/>
		<path fill="#723F3F" d="M689.047,393.301c0,0-2.395,2.603-5.593,5.722c-2.96,2.886-3.877,3.717-6.623,6.398
			c-1.604,1.566-0.283,3.005,2.774,2.888c2.688-0.104,8.774-1.412,12.179-2.635c2.419-0.869,6.853-3.321,9.118-4.753
			c2.265-1.433,2.707-3.422,2.707-3.422v-4.815L689.047,393.301z"/>
		<path fill="#723F3F" d="M727.099,399.297c0,0-0.555,4.934-0.895,11.133c-0.341,6.199,0.535,11.673,2.43,12.355
			c1.895,0.682,7.291,0.596,10.361-8.011c3.07-8.608,1.239-16.955,1.239-16.955L727.099,399.297z"/>
		<path fill="#4F2525" d="M733.238,314.475c1.132-17.664-8.605-26.948-8.605-26.948c0.775-5.952-26.835,2.378-26.835,2.378
			s-5.911,31.999-8.41,48.849c-2.839,19.15-1.596,53.336-1.596,53.336s0.358,4.164,7.492,4.136c5.474-0.021,9.987-4.475,9.987-4.475
			l0.566-39.91l6.341-31.477c0,0,1.085,29.373,5.104,37.849c7.351,15.503,7.351,42.828,7.351,42.828s9.26,3.305,15.601,0.134
			c6.34-3.17,5.095-6.712,5.095-6.712s-1.602-21.189-9.754-39.532C734.895,341.004,732.718,322.587,733.238,314.475z"/>
		<path fill="#3EA0C6" d="M693.933,298.709c9.438,10.181,26.904,8.734,39.669,1.803c-1.004-6.571-3.228-11.402-2.726-15.263
			c1.572-12.085,3.923-31.619,3.497-34.816c-0.713-5.348-12.837-11.14-12.837-11.14s-8.6-6.659-17.512-3.153
			c0,0-9.53,7.698-10.665,18.574c-0.563,5.4,1.085,23.595,1.135,35.52C694.504,292.868,694.429,294.209,693.933,298.709z"/>
		<g>
			<path fill="#C1592B" d="M707.425,235.806l-0.575,8.379c0,0,1.103,1.655,3.933,4.051c3.026-0.944,10.054-7.464,10.054-7.464
				l-2.341-13.008L707.425,235.806z"/>
			<path fill="#D87745" d="M719.793,213.465c-3.151-4.016-12.209-7.399-18.111,1.334c-6.188,9.158-0.34,24.132,5.081,23.257
				c3.036-0.489,9.871-3.255,12.866-8.146C723,224.407,722.241,216.585,719.793,213.465z"/>
		</g>
		<path fill="#D87745" d="M727.424,192.238c3.233,10.825,6.879,24.449,5.946,31.469c-0.644,4.844-6.791,20.906-6.791,20.906
			s0.453,7.19,4.906,7.886c4.453,0.696,6.248,0.893,6.248,0.893s7.219-21.783,8.194-25.628c2.148-8.471-3.309-23.887-7.694-34.459
			c-0.472-1.138,0.386-10.039,0-11.086C733.293,168.828,725.45,185.628,727.424,192.238z"/>
		<path fill="#2078A5" d="M706.903,240.266l1.05,5.574l-5.519,2.252C702.435,248.092,701.502,242.056,706.903,240.266z"/>
		<path fill="#2078A5" d="M720.355,238.093c0,0-1.715,3.19-5.674,5.425c-2.028,1.146-6.727,2.321-6.727,2.321l2.077,6.231
			c0,0,6.571-2.663,9.796-5.22C719.827,246.851,724.109,241.774,720.355,238.093z"/>
		<path d="M699.359,217.862c1.256,2.006,3.215,4.357,8.262,4.623c4.13,0.218,7.393-1.016,7.393-1.016l-0.354,5.516
			c0,0,0.829,0.031,1.513-0.208c0.546-2.095,1.444-2.586,2.467-1.702c1.157,1,0.989,4.836,0.989,4.836s4.369-3.775,4.351-10.089
			c-0.011-3.935-3.451-12.459-10.659-13.352c-7.209-0.893-12.343,2.875-14.104,6.725
			C698.334,215.124,698.792,216.956,699.359,217.862z"/>
		<path fill="#2078A5" d="M734.994,241.519c-2.682-1.253-3.268-2.38-5.485-5.858c-8.329,19.593-5.977,25.624-4.826,28.67
			c1.15,3.046,7.879,7.331,7.879,7.331s7.019-11.892,10.188-30.791C740.294,242.639,738.084,242.963,734.994,241.519z"/>
		<path fill="#2078A5" d="M706.85,244.185c0,0-2.061,7.55-2.987,12.276c-1.108,5.652-0.493,34.234-0.493,37.189
			c0,2.956-0.328,11.22-0.328,11.22l3.861,0.685c0,0,0.997-25.159-0.053-31.854c-1.05-6.696,0.85-20.426,1.397-22.929
			c0.291-1.33,0.534-4.373,0.534-4.373L706.85,244.185z"/>
	</g>
	<g>
		<g>
			<path fill="#F2BB40" d="M726.717,145.396c-0.55-0.318-1.092-0.586-1.628-0.823l-15.194,8.772l0.886,1.785
				c-0.07,0.77-0.115,1.564-0.115,2.399c0,0.076,0.008,0.155,0.009,0.231l18.491-10.675
				C728.365,146.459,727.552,145.878,726.717,145.396z"/>
			<path fill="#F2BB40" d="M726.717,188.195c0.216,0.125,0.425,0.214,0.639,0.326l1.544,3.11l12.19-7.038
				c0.781-1.636,1.309-3.611,1.54-5.885l-16.158,9.329C726.554,188.086,726.634,188.148,726.717,188.195z"/>
			<path fill="#F2BB40" d="M716.177,144.598l-0.005-0.011l-8.263,4.756l1.123,2.262l13.597-7.85
				C720.208,143.213,718.009,143.523,716.177,144.598z"/>
			<path fill="#F2BB40" d="M725.809,178.114l16.123-9.308c-0.326-1.489-0.74-2.973-1.238-4.437l-12.154,7.017l-1.938-1.119
				l13.424-7.75c-0.531-1.354-1.136-2.676-1.794-3.96l-15.507,8.953l-1.938-1.119l16.517-9.536c-0.727-1.273-1.512-2.489-2.348-3.64
				l-18.046,10.419l-1.938-1.119l18.794-10.851c-0.961-1.184-1.975-2.27-3.032-3.245l-19.638,11.338l-0.354-0.204
				c0.688,10.388,6.524,21.744,13.942,27.279l18.068-10.431c0.001-0.116,0.015-0.221,0.015-0.338c0-1.716-0.168-3.474-0.454-5.238
				l-14.565,8.409L725.809,178.114z"/>
			<polygon fill="#F48F3B" points="707.131,152.703 709.069,153.822 709.895,153.345 709.032,151.606 			"/>
			<path fill="#F48F3B" d="M722.628,143.756l-13.597,7.85l0.863,1.74l15.194-8.772C724.247,144.201,723.427,143.935,722.628,143.756
				z"/>
			<path fill="#F48F3B" d="M709.157,158.637l1.585,0.915c-0.04-0.601-0.062-1.198-0.066-1.791L709.157,158.637z"/>
			<path fill="#F48F3B" d="M730.734,148.418c-0.513-0.473-1.036-0.917-1.568-1.333l-18.491,10.675
				c0.005,0.593,0.027,1.19,0.066,1.791l0.354,0.204L730.734,148.418z"/>
			<path fill="#F48F3B" d="M716.911,163.633l18.046-10.419c-0.387-0.533-0.783-1.049-1.19-1.551l-18.794,10.851L716.911,163.633z"/>
			<path fill="#F48F3B" d="M722.725,167.509l15.507-8.953c-0.296-0.578-0.608-1.143-0.928-1.703l-16.517,9.536L722.725,167.509z"/>
			<path fill="#F48F3B" d="M728.54,171.386l12.154-7.017c-0.211-0.621-0.428-1.241-0.668-1.853l-13.424,7.75L728.54,171.386z"/>
			<path fill="#F48F3B" d="M725.809,178.114l1.938,1.119l14.565-8.409c-0.109-0.673-0.233-1.345-0.38-2.018L725.809,178.114z"/>
			<path fill="#F48F3B" d="M718.403,190.457l1.938,1.119l6.13-3.539c-0.605-0.362-1.201-0.768-1.788-1.206L718.403,190.457z"/>
			<path fill="#F48F3B" d="M726.471,188.037l16.158-9.329c0.075-0.737,0.112-1.51,0.122-2.308l-18.068,10.431
				C725.271,187.269,725.866,187.675,726.471,188.037z"/>
			<path fill="#F48F3B" d="M729.73,193.305l6.769-3.923c1.922-0.867,3.498-2.5,4.59-4.789l-12.19,7.038L729.73,193.305z"/>
		</g>
		<g>
			<path fill="#FFED43" d="M702.633,162.144c0,11.819,7.186,25.548,16.05,30.666c8.864,5.118,16.05-0.315,16.05-12.133
				c0-11.819-7.186-25.548-16.05-30.666C709.819,144.893,702.633,150.326,702.633,162.144z"/>
			<g>
				<path fill="#F2BB40" d="M723.963,191.456c-1.746,0-3.642-0.575-5.573-1.716c-7.443-4.394-13.577-16.07-13.674-26.028l0,0
					c-0.052-5.34,1.656-9.407,4.689-11.157c2.534-1.464,5.769-1.182,9.111,0.792c7.442,4.393,13.577,16.069,13.675,26.028
					c0.053,5.339-1.657,9.406-4.69,11.157C726.432,191.15,725.237,191.456,723.963,191.456z M712.944,152.569
					c-1.114,0-2.151,0.264-3.073,0.797c-2.732,1.577-4.27,5.345-4.221,10.338l0,0c0.095,9.666,6.022,20.984,13.214,25.231
					c3.039,1.793,5.939,2.073,8.169,0.787c2.732-1.578,4.27-5.345,4.222-10.338c-0.096-9.666-6.023-20.985-13.215-25.23
					C716.259,153.101,714.523,152.569,712.944,152.569z"/>
			</g>
		</g>
		<g>
			<path fill="#F48F3B" d="M720.785,168.057c-0.658-1.309-1.224-2.114-1.992-2.557c-0.878-0.507-1.353-0.246-1.353,1.02
				c0,2.674,4.828,5.235,4.828,10.612c0,2.701-0.97,4.225-2.853,3.756v2.928l-1.774-1.024v-2.814
				c-1.079-0.821-2.359-2.29-3.219-3.997l1.171-2.111c0.932,1.609,1.736,2.636,2.614,3.142c1.024,0.591,1.483,0.208,1.483-1.086
				c0-2.899-4.828-5.63-4.828-10.696c0-2.758,1.06-4.06,2.78-3.602v-2.899l1.774,1.024v2.842c1.171,0.929,2.011,2.316,2.725,3.881
				L720.785,168.057z"/>
		</g>
	</g>
	<path fill="#FFC5B3" d="M713.552,178.454c0,0-0.132,3.616-0.539,4.977c-0.631,2.115-4.868,2.232-4.868,2.232l-3.382-1.136
		c0,0,2.121-1.987,3.08-2.313c0.758-0.257,3.255-0.152,3.255-0.152S709.493,179.202,713.552,178.454z"/>
	<path fill="#FFC5B3" d="M728.297,184.593c0,0-2.268,3.43-2.792,4.957c-0.814,2.372,3.025,5.28,3.025,5.28l3.877,1.186
		c0,0-0.647-3.239-1.318-4.174c-0.531-0.739-2.909-2.292-2.909-2.292S731.554,187.967,728.297,184.593z"/>
</g>
<g>
	<g>
		<path fill="#D87745" d="M231.237,205.453c-0.578,5,0.762,12.318,2.793,15.713c2.844,4.753,10.588,12.685,14.034,18.898
			c5.108,9.21,6.036,19.528,4.925,24.667c-0.881,4.073-3.679,16.205-3.679,16.205l-10.79-4.663c0,0,2.215-7.034,3.099-15.212
			c0.648-5.991-2.73-13.752-4.392-18.143c-4.129-10.909-9.971-17.85-10.491-17.763C224.516,225.53,231.759,200.937,231.237,205.453z
			"/>
		<path fill="#CE5300" d="M231.407,276.437c0.979-1.433,4.91-3.232,6.302-8.317c5.064,4.905,7.022,5.048,14.431,8.004
			c-0.581,5.215-7.412,21.527-7.412,21.527l-15.423-16.451C229.305,281.199,229.305,279.513,231.407,276.437z"/>
		<path fill="#723F3F" d="M249.04,436.238c0,0,2.395,2.603,5.593,5.722c2.96,2.886,3.877,3.717,6.624,6.398
			c1.604,1.566,0.283,3.005-2.774,2.888c-2.688-0.104-8.774-1.412-12.179-2.635c-2.419-0.869-6.853-3.321-9.118-4.753
			c-2.265-1.433-2.707-3.422-2.707-3.422v-4.815L249.04,436.238z"/>
		<path fill="#723F3F" d="M210.987,442.233c0,0,0.555,4.934,0.895,11.133c0.341,6.199-0.535,11.672-2.43,12.355
			c-1.895,0.682-7.291,0.596-10.36-8.011c-3.07-8.608-1.239-16.955-1.239-16.955L210.987,442.233z"/>
		<path fill="#4F2525" d="M204.849,357.411c-1.132-17.663,8.605-26.948,8.605-26.948c-0.775-5.952,26.835,2.378,26.835,2.378
			s5.912,31.999,8.41,48.849c2.839,19.15,1.596,53.336,1.596,53.336s-0.358,4.164-7.491,4.136c-5.474-0.021-9.987-4.475-9.987-4.475
			l-0.566-39.91l-6.341-31.478c0,0-1.085,29.373-5.104,37.849c-7.35,15.503-7.35,42.828-7.35,42.828s-9.26,3.305-15.601,0.134
			c-6.34-3.17-5.095-6.712-5.095-6.712s1.602-21.189,9.754-39.532C203.192,383.941,205.369,365.524,204.849,357.411z"/>
		<path fill="#FF6D00" d="M244.154,341.645c-9.438,10.181-26.904,8.734-39.669,1.803c1.004-6.571,3.228-11.402,2.726-15.263
			c-1.572-12.085-3.923-31.619-3.497-34.816c0.713-5.348,12.837-11.14,12.837-11.14s8.6-6.659,17.512-3.153
			c0,0,9.53,7.697,10.665,18.574c0.563,5.4-1.085,23.595-1.135,35.52C243.583,335.805,243.658,337.146,244.154,341.645z"/>
		<g>
			<path fill="#D87745" d="M230.662,278.743l0.575,8.379c0,0-1.103,1.655-3.933,4.051c-3.026-0.944-10.054-7.464-10.054-7.464
				l2.341-13.008L230.662,278.743z"/>
			<path fill="#D87745" d="M218.294,256.402c3.151-4.016,12.209-7.399,18.111,1.334c6.188,9.158,0.34,24.132-5.081,23.257
				c-3.036-0.489-9.871-3.255-12.866-8.146C215.087,267.343,215.846,259.522,218.294,256.402z"/>
		</g>
		<path fill="#D87745" d="M210.663,235.175c-3.233,10.825-6.88,24.449-5.946,31.469c0.644,4.844,6.791,20.906,6.791,20.906
			s-0.453,7.19-4.906,7.886c-4.453,0.696-6.248,0.893-6.248,0.893s-7.219-21.783-8.194-25.627
			c-2.148-8.471,3.309-23.887,7.694-34.459c0.472-1.138-0.386-10.039,0-11.086C204.794,211.764,212.637,228.565,210.663,235.175z"/>
		<path fill="#CE5300" d="M231.184,283.203l-1.05,5.574l5.519,2.252C235.652,291.029,236.585,284.992,231.184,283.203z"/>
		<path fill="#CE5300" d="M217.732,281.03c0,0,1.715,3.19,5.674,5.425c2.028,1.145,6.727,2.321,6.727,2.321l-2.077,6.231
			c0,0-6.571-2.663-9.796-5.22C218.26,289.787,213.978,284.711,217.732,281.03z"/>
		<path fill="#4F2525" d="M239.061,265.193c-1.81-0.805-2.84-1.993-4.017-2.695c-2.841,6.232-12.447,7.454-13.131,7.215
			c-0.546-2.095-1.444-2.586-2.467-1.702c-1.157,1-0.989,4.836-0.989,4.836s-4.369-3.775-4.351-10.089
			c0.011-3.935,3.45-12.459,10.66-13.352c7.209-0.893,12.042,3.027,14.103,6.725C241.619,261.061,239.629,264.287,239.061,265.193z"
			/>
		<path fill="#CE5300" d="M203.093,284.456c2.682-1.253,3.268-2.379,5.485-5.858c8.329,19.593,5.977,25.624,4.826,28.67
			c-1.15,3.046-7.879,7.331-7.879,7.331s-7.02-11.892-10.189-30.791C197.793,285.575,200.003,285.899,203.093,284.456z"/>
		<path fill="#CE5300" d="M231.237,287.121c0,0,2.061,7.551,2.987,12.276c1.108,5.652,0.493,34.234,0.493,37.189
			s0.328,11.22,0.328,11.22l-3.861,0.685c0,0-0.997-25.159,0.053-31.854c1.05-6.696-0.85-20.426-1.397-22.93
			c-0.291-1.33-0.534-4.372-0.534-4.372L231.237,287.121z"/>
	</g>
	<g>
		<g>
			<path fill="#F2BB40" d="M202.033,234.401l27.372-15.147c1.966-1.088,3.612-4.1,3.659-6.694l0.37-20.391
				c0.047-2.594-1.523-3.826-3.488-2.738l-27.371,15.147c-1.966,1.088-3.612,4.1-3.659,6.694l-0.37,20.391
				C198.497,234.257,200.067,235.489,202.033,234.401z"/>
			<polygon fill="#F2BB40" points="202.659,236.275 199.703,234.531 202.503,230.824 			"/>
			<polygon fill="#F2BB40" points="235.196,191.05 232.149,189.232 230.192,193.646 			"/>
			<path fill="#FFED43" d="M204.819,236.052l27.371-15.147c1.966-1.088,3.612-4.1,3.659-6.693l0.37-20.391
				c0.047-2.594-1.523-3.826-3.488-2.738l-27.371,15.147c-1.966,1.088-3.613,4.1-3.66,6.694l-0.37,20.391
				C201.283,235.908,202.854,237.14,204.819,236.052z"/>
		</g>
		<polygon fill="#723F3F" points="204.385,210.713 233.563,194.538 233.529,196.446 204.351,212.62 		"/>
		<polygon fill="#723F3F" points="204.311,214.811 233.489,198.636 233.454,200.544 204.276,216.718 		"/>
		<polygon fill="#723F3F" points="204.035,230.005 233.213,213.83 233.178,215.738 204,231.912 		"/>
		<path fill="#F2BB40" d="M206.31,226.439l2.949-1.632c1.104-0.61,2.028-2.302,2.055-3.758l0.071-3.891
			c0.027-1.456-0.855-2.148-1.958-1.537l-2.949,1.632c-1.104,0.611-2.028,2.302-2.055,3.758l-0.071,3.891
			C204.325,226.359,205.206,227.05,206.31,226.439z"/>
		<g>
			<path fill="#723F3F" d="M232.913,205.626l-0.477,1.177c-0.127,0.305-0.227,0.582-0.341,0.882l-0.021,0.014
				c-0.101-0.202-0.203-0.367-0.304-0.536l-0.439-0.659l-0.634,0.351l1.064,1.461l-1.175,2.844l0.667-0.369l0.495-1.228
				c0.131-0.318,0.241-0.619,0.358-0.937l0.012-0.005c0.101,0.197,0.212,0.367,0.329,0.555l0.45,0.705l0.646-0.355l-1.107-1.555
				l1.133-2.709L232.913,205.626z"/>
			<path fill="#723F3F" d="M229.785,207.36l-0.477,1.173c-0.127,0.309-0.227,0.582-0.342,0.887l-0.021,0.009
				c-0.101-0.197-0.203-0.362-0.304-0.536l-0.44-0.659l-0.634,0.351l1.064,1.466l-1.175,2.844l0.667-0.369l0.495-1.233
				c0.131-0.314,0.241-0.614,0.358-0.933l0.012-0.009c0.101,0.197,0.212,0.367,0.329,0.555l0.45,0.71l0.646-0.36l-1.107-1.55
				l1.133-2.709L229.785,207.36z"/>
			<path fill="#723F3F" d="M226.661,209.089l-0.477,1.172c-0.127,0.309-0.227,0.582-0.341,0.887l-0.021,0.009
				c-0.101-0.197-0.203-0.362-0.304-0.536l-0.439-0.659l-0.634,0.351l1.064,1.466l-1.175,2.844l0.667-0.369l0.494-1.233
				c0.129-0.314,0.239-0.614,0.359-0.933l0.012-0.009c0.101,0.197,0.212,0.367,0.329,0.555l0.45,0.71l0.646-0.36l-1.107-1.55
				l1.133-2.709L226.661,209.089z"/>
			<path fill="#723F3F" d="M223.999,212.128l-1.64,0.91l-0.017,0.92l1.64-0.909L223.999,212.128z"/>
			<path fill="#723F3F" d="M221.336,212.033l-0.477,1.178c-0.127,0.305-0.229,0.582-0.342,0.882l-0.021,0.009
				c-0.101-0.197-0.203-0.357-0.304-0.531l-0.439-0.664l-0.634,0.351l1.064,1.466l-1.175,2.843l0.667-0.369l0.492-1.228
				c0.132-0.318,0.242-0.614,0.361-0.937l0.012-0.005c0.101,0.197,0.21,0.366,0.327,0.555l0.452,0.706l0.646-0.356l-1.109-1.554
				l1.133-2.705L221.336,212.033z"/>
			<path fill="#723F3F" d="M218.207,213.762l-0.477,1.182c-0.127,0.305-0.229,0.582-0.342,0.878l-0.021,0.013
				c-0.101-0.197-0.203-0.362-0.304-0.531l-0.439-0.664l-0.634,0.351l1.064,1.466l-1.175,2.843l0.667-0.369l0.492-1.228
				c0.132-0.323,0.242-0.619,0.361-0.938l0.012-0.009c0.101,0.202,0.21,0.366,0.327,0.559l0.452,0.706l0.646-0.361l-1.107-1.554
				l1.13-2.705L218.207,213.762z"/>
			<path fill="#723F3F" d="M215.08,215.492l-0.475,1.182c-0.127,0.305-0.229,0.582-0.344,0.878l-0.019,0.013
				c-0.101-0.197-0.202-0.362-0.304-0.531l-0.439-0.664l-0.636,0.351l1.066,1.466l-1.175,2.843l0.667-0.369l0.492-1.228
				c0.132-0.323,0.242-0.619,0.359-0.938l0.014-0.009c0.101,0.202,0.21,0.366,0.327,0.559l0.45,0.706l0.648-0.361l-1.109-1.555
				l1.133-2.705L215.08,215.492z"/>
		</g>
	</g>
	<path fill="#D87745" d="M224.535,221.39c0,0,0.132,3.616,0.539,4.977c0.631,2.115,4.868,2.232,4.868,2.232l3.382-1.136
		c0,0-2.121-1.988-3.08-2.313c-0.758-0.258-3.255-0.152-3.255-0.152S228.594,222.138,224.535,221.39z"/>
	<path fill="#D87745" d="M209.79,227.529c0,0,2.268,3.43,2.792,4.957c0.814,2.372-3.025,5.28-3.025,5.28l-3.877,1.186
		c0,0,0.647-3.239,1.318-4.174c0.531-0.739,2.908-2.292,2.908-2.292S206.533,230.903,209.79,227.529z"/>
</g>
<g>
	<g>
		<path fill="#C1592B" d="M520.991,272.825c0,0-3.753,10.639-5.584,14.611c-1.831,3.972-1.79,12.288-1.67,17.153
			c0.12,4.865,8.115,9.614,8.115,9.614s2.847-16.054,3.852-19.186c1.005-3.131,5.547-11.749,5.547-11.749
			S528.164,274.457,520.991,272.825z"/>
		<g>
			<path fill="#4F2525" d="M521.073,418.241c0,0-2.601,2.828-6.076,6.216c-3.215,3.135-4.211,4.037-7.195,6.949
				c-1.743,1.701-0.307,3.265,3.014,3.137c2.92-0.113,9.531-1.534,13.23-2.862c2.628-0.944,7.444-3.607,9.905-5.163
				c2.461-1.557,2.941-3.717,2.941-3.717v-5.231L521.073,418.241z"/>
			<path fill="#4F2525" d="M568.596,413.597c0,0-1.663,2.428-5.138,5.816c-3.215,3.135-4.164,4.374-7.011,8.118
				c-0.649,0.854-1.028,3.294,2.294,3.166c2.92-0.113,7.366-1.356,11.069-2.674c4.227-1.503,7.793-5.762,10.254-7.318
				c2.461-1.556,3.545-4.994,3.545-4.994l-1.7-5.153L568.596,413.597z"/>
			<path fill="#723F3F" d="M567.271,328.764c1.23-19.188-9.348-29.274-9.348-29.274c0.842-6.466-29.15,2.583-29.15,2.583
				s-6.421,34.76-9.135,53.064c-3.084,20.803-1.217,63.169-1.217,63.169s0.389,4.522,8.138,4.492
				c5.947-0.023,10.332-5.23,10.332-5.23l0.615-48.215l6.888-34.194c0,0,6.63,27.788,8.733,37.76
				c2.237,10.608,10.81,41.997,10.81,41.997s5.549,6.375,12.437,2.931c6.888-3.444,5.535-7.291,5.535-7.291
				s-1.353-22.262-10.209-42.188C570.961,353.241,566.706,337.577,567.271,328.764z"/>
			<path fill="#F2BB40" d="M535.171,250.604c0,0-5.019-1.917-9.998,7.391c-4.445,8.311-7.38,17.892-7.38,17.892
				s6.447,0.922,13.458,7.38C540.845,274.596,542.412,254.656,535.171,250.604z"/>
			<path fill="#FFED43" d="M534.377,250.375c0,0-3.914,5.948-6.128,14.434c-2.214,8.487-1.42,47.947-1.42,47.947
				s9.144,6.466,24.453,5.199c9.102-0.753,13.746-6.389,13.746-6.389s5.907-41.649,5.169-47.184
				c-0.738-5.535-12.786-15.533-12.786-15.533S543.599,246.747,534.377,250.375z"/>
			<g>
				<path fill="#C1592B" d="M543.354,246.304l-1.779,10.364c0,0,5.278,5.923,10.444,1.496c5.166-4.428,5.904-6.465,5.904-6.465
					l-2.543-14.131L543.354,246.304z"/>
				<path fill="#D87745" d="M550.643,222.011c-4.411-3.36-14.86-4.437-18.674,6.359c-4,11.321,6.246,25.461,11.706,23.059
					c3.057-1.345,9.486-6.124,11.296-12.084C557.009,232.635,554.071,224.621,550.643,222.011z"/>
				<path fill="#723F3F" d="M531.066,231.965c1.819,1.855,4.472,3.915,9.945,3.013c4.479-0.738,7.687-2.829,7.687-2.829l0.918,5.997
					c0,0,0.897-0.162,1.573-0.579c0.092-2.374,0.94-3.112,2.245-2.405c1.476,0.8,1.537,4.182,1.537,4.182s4.457-4.305,2.952-11.07
					c-0.937-4.216-6.63-12.546-14.569-11.808c-7.939,0.738-12.557,5.986-13.539,10.528
					C529.323,229.27,530.244,231.126,531.066,231.965z"/>
			</g>
		</g>
		<g>
			<g>
				<path fill="#F2BB40" d="M514.182,283.699c-0.55-0.318-1.092-0.586-1.628-0.823l-15.194,8.772l0.886,1.785
					c-0.07,0.77-0.115,1.564-0.115,2.399c0,0.076,0.008,0.155,0.009,0.231l18.491-10.675
					C515.831,284.762,515.017,284.181,514.182,283.699z"/>
				<path fill="#F2BB40" d="M514.182,326.498c0.216,0.125,0.425,0.214,0.639,0.326l1.544,3.11l12.19-7.038
					c0.781-1.636,1.309-3.611,1.54-5.885l-16.158,9.329C514.019,326.389,514.099,326.45,514.182,326.498z"/>
				<path fill="#F2BB40" d="M503.642,282.901l-0.005-0.011l-8.263,4.756l1.123,2.262l13.596-7.85
					C507.673,281.516,505.475,281.826,503.642,282.901z"/>
				<path fill="#F2BB40" d="M513.274,316.417l16.123-9.308c-0.326-1.489-0.74-2.973-1.238-4.437l-12.154,7.017l-1.938-1.119
					l13.424-7.75c-0.531-1.354-1.136-2.676-1.794-3.96l-15.506,8.953l-1.938-1.119l16.517-9.536
					c-0.727-1.273-1.512-2.489-2.348-3.64l-18.046,10.419l-1.938-1.119l18.794-10.851c-0.962-1.184-1.975-2.27-3.033-3.245
					l-19.638,11.338l-0.354-0.204c0.688,10.388,6.524,21.744,13.942,27.279l18.068-10.431c0.001-0.116,0.015-0.221,0.015-0.338
					c0-1.716-0.168-3.474-0.454-5.238l-14.565,8.409L513.274,316.417z"/>
				<polygon fill="#F48F3B" points="494.596,291.006 496.535,292.125 497.361,291.648 496.497,289.909 				"/>
				<path fill="#F48F3B" d="M510.094,282.059l-13.596,7.85l0.863,1.74l15.194-8.772
					C511.712,282.504,510.892,282.238,510.094,282.059z"/>
				<path fill="#F48F3B" d="M496.623,296.94l1.585,0.915c-0.04-0.601-0.062-1.198-0.066-1.791L496.623,296.94z"/>
				<path fill="#F48F3B" d="M518.199,286.721c-0.513-0.473-1.036-0.917-1.568-1.333l-18.491,10.675
					c0.005,0.593,0.027,1.19,0.066,1.791l0.354,0.204L518.199,286.721z"/>
				<path fill="#F48F3B" d="M504.376,301.936l18.046-10.419c-0.387-0.533-0.783-1.049-1.19-1.551l-18.794,10.851L504.376,301.936z"
					/>
				<path fill="#F48F3B" d="M510.191,305.812l15.506-8.953c-0.296-0.578-0.608-1.143-0.928-1.703l-16.517,9.536L510.191,305.812z"/>
				<path fill="#F48F3B" d="M516.006,309.689l12.154-7.017c-0.211-0.621-0.428-1.241-0.668-1.853l-13.424,7.75L516.006,309.689z"/>
				<path fill="#F48F3B" d="M513.274,316.417l1.938,1.119l14.565-8.409c-0.109-0.673-0.233-1.345-0.38-2.018L513.274,316.417z"/>
				<path fill="#F48F3B" d="M505.868,328.76l1.938,1.119l6.13-3.539c-0.605-0.362-1.201-0.768-1.788-1.206L505.868,328.76z"/>
				<path fill="#F48F3B" d="M513.937,326.34l16.158-9.329c0.075-0.737,0.112-1.51,0.121-2.308l-18.068,10.431
					C512.736,325.572,513.331,325.978,513.937,326.34z"/>
				<path fill="#F48F3B" d="M517.195,331.608l6.769-3.923c1.922-0.867,3.498-2.5,4.59-4.789l-12.19,7.038L517.195,331.608z"/>
			</g>
			<g>
				<path fill="#FFED43" d="M490.099,300.447c0,11.819,7.186,25.548,16.05,30.666c8.864,5.118,16.05-0.315,16.05-12.133
					s-7.186-25.548-16.05-30.666C497.284,283.196,490.099,288.629,490.099,300.447z"/>
				<g>
					<path fill="#F2BB40" d="M511.428,329.759c-1.746,0-3.643-0.575-5.573-1.716c-7.443-4.394-13.577-16.07-13.674-26.028l0,0
						c-0.053-5.34,1.656-9.407,4.688-11.157c2.534-1.464,5.769-1.182,9.112,0.792c7.442,4.393,13.577,16.069,13.675,26.028
						c0.053,5.339-1.657,9.406-4.689,11.157C513.897,329.452,512.702,329.759,511.428,329.759z M500.41,290.872
						c-1.114,0-2.151,0.264-3.073,0.797c-2.732,1.577-4.27,5.345-4.221,10.338l0,0c0.095,9.666,6.022,20.984,13.214,25.231
						c3.039,1.793,5.939,2.073,8.169,0.787c2.732-1.578,4.27-5.345,4.222-10.338c-0.096-9.666-6.023-20.985-13.215-25.231
						C503.724,291.404,501.988,290.872,500.41,290.872z"/>
				</g>
			</g>
			<g>
				<path fill="#F48F3B" d="M508.252,306.361c-0.66-1.309-1.225-2.114-1.994-2.557c-0.878-0.507-1.353-0.246-1.353,1.02
					c0,2.674,4.828,5.235,4.828,10.612c0,2.701-0.97,4.225-2.853,3.756v2.928l-1.774-1.024v-2.814
					c-1.079-0.821-2.358-2.29-3.219-3.997l1.171-2.111c0.932,1.609,1.737,2.635,2.616,3.142c1.024,0.591,1.481,0.208,1.481-1.086
					c0-2.899-4.828-5.63-4.828-10.696c0-2.758,1.06-4.06,2.779-3.602v-2.899l1.774,1.024v2.843c1.171,0.929,2.011,2.316,2.725,3.881
					L508.252,306.361z"/>
			</g>
		</g>
		<path fill="#D87745" d="M559.295,281.639c0,0-0.237,13.26-0.477,18.673c-0.06,1.365-0.399,3.867-3.737,6.22
			c-2.901,2.045-18.421,9.805-20.597,10.162c-4.079,0.668-9.683,0.763-11.226,0.062c-2.371-1.078-2.926,0.67-0.891,2.401
			c0.759,0.646,2.365,0.791,2.365,0.791s-4.016,2.718-7.219,3.835c-3.64,1.269-3.048,5.367,2.643,6.118
			c5.166,0.682,12.169-2.927,14.23-3.85c0.503-0.225,26.102-9.397,28.886-10.806c3.24-1.639,6.819-8.86,8.158-14.758
			c1.803-7.94,2.606-17.591,2.606-17.591L559.295,281.639z"/>
		<path fill="#F2BB40" d="M566.014,256.087c-3.974-1.27-6.699,7.145-8.146,13.637c-1.447,6.493-0.421,14.433-0.421,14.433
			s3.932,1.855,8.624,1.496c4.18-0.32,10.69-2.794,10.69-2.794S579.646,260.445,566.014,256.087z"/>
		<path fill="#C1592B" d="M489.288,296.506c-2.272,0.74-2.528,9.006,0.712,11.045c3.24,2.039,4.358-3.36,3.799-6.289
			C493.241,298.333,492.207,295.556,489.288,296.506z"/>
	</g>
	<g>
		<g>
			<path fill="#723F3F" d="M417.023,197.355c0.106,0.008,0.195,0.04,0.28,0.077c0.086-0.046,0.19-0.049,0.277,0.048
				c1.64,1.827,4.932,3.515,5.028,6.219c0.039,1.116-2.592,2.959-2.979,4.091c-0.494,1.443,1.118,2.256,1.664,2.886
				c0.817,0.944,2.83,2.876-2.051,5.898c-3.298,2.042,0.409,5.01-3.731,5.77c-6.893,1.265-10.723-3.329-11.112-10.109
				C404.042,206.02,410.349,196.877,417.023,197.355z"/>
			<path fill="#FFA08D" d="M413.243,214.028c0,0,3.954-0.663,7.715,1.525c3.761,2.188,13.307,17.98,15.333,21.294
				c2.026,3.314,12.849,10.637,12.849,20.138c0,1.658-6.62-0.387-6.62-0.387s-12.038-10.027-17.531-16.547
				c-3.241-3.847-3.447-5.218-3.881-5.977C419.939,232.027,413.243,214.028,413.243,214.028z"/>
			<path fill="#FFC5B3" d="M426.155,283.865c0,0,5.626,30.363,7.114,34.097c1.488,3.734,0.251,5.839-1.686,14.344
				c-1.938,8.505-3.546,23.068-4.167,29.208c-0.578,5.724-0.446,12.163,1.687,14.254c2.133,2.091,13.089,7.06,11.052,8.661
				c-2.037,1.601-7.97,3.489-11.055,0.926s-6.014-3.223-8.094-4.32c-2.349-1.24-3.298-3.254-1.448-10.807
				c1.595-6.514-2.572-25.141-2.58-34.703c-0.005-6.035,1.705-11.876,1.679-12.406C418.404,318.035,410.568,306.767,426.155,283.865
				z"/>
			<path fill="#FFC5B3" d="M407.428,317.374c0,0-1.486,23.603-2.635,27.906c-1.149,4.304-5.538,27.323-5.951,31.108
				c-0.571,5.24,0.261,10.291,0,14.176c-0.199,2.959-1.014,14.409-7.977,11.026c-4.766-2.316-1.809-11.426-0.357-16.023
				c0.547-1.733,2.294-5.944,2.024-11.155c-0.483-9.331-1.309-13.247-0.657-21.705c0.12-1.559,0.337-8.212-0.295-15.014
				c-0.889-9.552-2.626-19.986-1.424-22.171C392.214,311.78,407.428,317.374,407.428,317.374z"/>
			<path fill="#723F3F" d="M393.014,273.129c0,0-3.33,5.763-5.581,15.292c-1.861,7.88,2.291,21.503,2.242,25.812
				c-0.049,4.309,0.477,13.938,0.477,13.938s3.02,3.017,8.976,3.017c3.89,0,8.014-3.483,8.014-3.483l3.487-29.896
				c0,0,3.235,13.826,4.139,16.397c1.307,3.718,3.481,8.11,3.481,8.11s3.301,1.33,9.079-0.465c1.996-0.62,5.769-4.164,5.769-4.164
				l-8.803-40.875C424.294,276.812,404.212,280.689,393.014,273.129z"/>
			<g>
				<path fill="#FFA08D" d="M408.823,229.82c-4.52-1.582-7.698-8.779-8.906-11.953c0.06-0.11,0.127-0.221,0.168-0.331
					c1.456-3.983,0.475-9.746,0.475-9.746l10.017,2.736c0.114,2.272,0.147,4.481,1.344,5.815c0.341,0.381,0.929,0.72,1.611,1.019
					c0.919,1.828,2.813,5.812,3.75,9.361C418.05,229.631,413.214,231.357,408.823,229.82z"/>
				<path fill="#ED2B2B" d="M423.657,229.51c1.275,2.674,2.634,6.043-0.433,11.388c-1.326,5.759-0.612,7.737-0.522,14.641
					c0.087,6.728,3.589,18.747,3.589,18.747s-2.295,6.086-12.085,6.706c-9.79,0.62-23.603-5.383-23.603-5.383
					s7.709-15.686,6.285-21.453c-2.962-12.002-3.963-14.622-4.648-16.561c-2.665-7.547-1.274-14.128-1.274-14.128
					s7.878-3.525,9.371-6.301c1.208,3.175,3.784,10.406,8.304,11.988c4.391,1.537,7.133-1.428,6.365-4.337
					c-0.568-2.153-2.141-4.385-3.119-6.579c-0.634-1.424-1.011-2.999-1.103-3.818c0.597-0.084,0.917-0.585,1.839-0.47
					c0.621,0.077,1.387-0.052,1.932-0.01C415.327,215.274,421.111,224.169,423.657,229.51z"/>
			</g>
			<path fill="#FFFFFF" d="M392.314,271.87c0,0,12.429,4.199,17.71,4.027c5.281-0.172,13.012-2.011,13.012-2.011v-3.697
				c0,0-9.182,1.692-13.713,1.681c-4.531-0.011-15.544-3.539-15.544-3.539L392.314,271.87z"/>
			<path fill="#FFFFFF" d="M395.948,262.071c0,0,9.928,2.356,14.077,2.781c4.149,0.426,13.012-0.37,13.012-0.37v-2.891
				c0,0-6.323,0.439-13.012,0.12c-4.558-0.217-13.389-2.421-13.389-2.421L395.948,262.071z"/>
			<path fill="#FFFFFF" d="M396.888,254.157c0,0,12.11,0.441,16.609,0.165c5.38-0.329,9.148-1.148,9.148-1.148l-0.173-3.975
				c0,0-3.479,1.172-9.508,1.172c-5.243,0-17.015,0.033-17.015,0.033L396.888,254.157z"/>
			<path fill="#FFFFFF" d="M396.678,242.453c0,0,11.554-1.893,16.818-1.638c5.264,0.255,9.728,0.083,9.728,0.083
				s1.332-2.321,1.595-3.892c-2.603-0.017-6.863,0.623-12.047,0.305c-5.183-0.318-15.579,1.204-15.579,1.204L396.678,242.453z"/>
			<polygon fill="#FFFFFF" points="396.83,232.402 408.202,228.979 405.735,227.192 396.304,229.881 			"/>
			<polygon fill="#FFFFFF" points="415.118,225.597 414.555,227.948 423.657,229.51 422.127,226.304 			"/>
			<g>
				<path fill="#FFC5B3" d="M415.541,191.118c4.768,4.956,2.845,22.095-4.16,23.219c-4.542,0.729-10.921-3.309-13.224-11.245
					C396.226,196.443,406.518,181.737,415.541,191.118z"/>
				<path fill="#4F2525" d="M389.066,207.229c0.785-1.244,0.166-2.957-0.18-4.079c-1.017-3.29-0.803-4.871,2.378-6.959
					c1.632-1.071,2.317-7.567,2.955-8.668c1.704-2.944,3.087-6.045,7.735-3.488c1.109-2.746,5.082-4.068,11.542-1.074
					c1.8,0.834,3.059,3.338,3.672,5.115c1.184,3.433,2.375,4.456,5.869,5.334c-0.568,1.223-2.556,3.868-5.28,2.573
					c-3.324-1.58-9.725,1.762-13.379,1.201c-1.018,1.014-1.324,2.542-1.901,4.064c-3.895-2.483-4.322,1.844-2.138,4.197
					c0.851,4.852,2.898,12.659,1.215,14.645c-4.338,5.117-4.684,1.467-8.821,2.62c-2.21,0.615-3.931,0.577-4.092-2.496
					c-0.135-2.583,3.713-4.114,1.636-6.942c-0.912-1.242-2.108-0.495-2.724-2.353C386.937,209.059,388.858,207.56,389.066,207.229z"
					/>
			</g>
			<g>
				<polygon fill="#FF6666" points="436.178,262.998 433.885,280.743 421.546,280.743 419.253,262.998 				"/>
				<ellipse fill="#FF6666" cx="427.716" cy="280.743" rx="6.17" ry="3.282"/>
				<ellipse fill="#FF8A8A" cx="427.715" cy="262.998" rx="8.462" ry="4.501"/>
				<g>
					<path fill="#FF6666" d="M421.201,264.852c-0.65-0.547-1.049-1.175-1.049-1.854c0-2.048,3.386-3.708,7.564-3.708
						c4.177,0,7.564,1.66,7.564,3.708c0,0.679-0.399,1.307-1.049,1.854c-1.311-1.104-3.722-1.854-6.515-1.854
						C424.923,262.998,422.511,263.749,421.201,264.852z"/>
					<path fill="#FFFFFF" d="M421.201,264.852c1.31-1.104,3.722-1.854,6.515-1.854c2.793,0,5.204,0.751,6.515,1.854
						c-1.311,1.104-3.722,1.854-6.515,1.854C424.923,266.707,422.511,265.956,421.201,264.852z"/>
				</g>
			</g>
			<path fill="#FFC5B3" d="M384.28,257.47c0.008-1.091,1.028-7.941,1.386-19.489c0.243-7.825,1.426-13.065,4.119-15.215
				c1.292,0.258,2.246,0.258,3.515-0.19c1.591,2.053,3.471,7.538,3.866,12.512c0.258,3.254-0.158,6.74-1.221,10.342
				c-0.332,1.123-0.938,9.972-1.174,12.601c4.087,1.998,10.114,4.962,11.569,5.764c3.167,1.745,15.278,8.45,19.284,8.065
				c8.606-0.827,11.377,4.402,5.977,8.003c-4.183,2.79-9.015,1.622-14.433-3.252c-0.313-0.282-6.711-3.069-12.375-4.751
				c-6.9-2.049-16.036-4.446-19.295-8.738C384.624,261.971,384.27,258.793,384.28,257.47z"/>
			<path fill="#723F3F" d="M418.657,373.678c0,0,0.921,3.871,7.211,7.092c4.832,2.474,7.444,3.069,10.13,2.124
				c2.686-0.944,2.686-0.944,2.686-0.944s2.422,0.951,4.09,2.226c1.667,1.275,0.49,1.996-4.762,3.304
				c-5.253,1.308-9.065-0.972-12.144-3.304c-3.079-2.332-5.948-1.914-7.211-3.406C416.522,378.247,418.657,373.678,418.657,373.678z
				"/>
			<path fill="#723F3F" d="M398.842,390.564c0,0-0.256,7.772-2.619,10.226c-2.363,2.454-7.152,1.48-8.398-2.746
				s0.874-5.855,0.874-5.855s1.586,4.938,4.406,4.731C395.925,396.713,398.842,390.564,398.842,390.564z"/>
		</g>
		<path fill="#FFA08D" d="M337.354,253.083c0,0,3.954-0.663,7.715,1.525c3.761,2.188,13.307,17.98,15.333,21.294
			c2.026,3.314,13.37,13.289,13.37,13.289l-7.142,6.463c0,0-12.038-10.027-17.53-16.547c-3.241-3.847-3.447-5.218-3.881-5.978
			C344.05,271.082,337.354,253.083,337.354,253.083z"/>
		<g>
			<g>
				<path fill="#FFC5B3" d="M350.443,323.808c0,0,5.52,29.795,6.981,33.459c1.461,3.664,0.247,5.729-1.655,14.075
					c-1.902,8.346-3.48,22.637-4.089,28.662c-0.568,5.617-0.438,11.935,1.656,13.987c2.093,2.052,12.844,6.928,10.845,8.499
					c-1.999,1.571-7.82,3.424-10.848,0.909c-3.027-2.515-5.902-3.162-7.942-4.239c-2.305-1.216-3.237-3.193-1.421-10.604
					c1.566-6.392-2.524-24.67-2.531-34.053c-0.005-5.922,1.674-11.654,1.648-12.174
					C342.837,357.339,335.148,346.282,350.443,323.808z"/>
				<path fill="#FFC5B3" d="M332.066,356.69c0,0-1.458,23.161-2.586,27.384c-1.127,4.223-5.435,26.812-5.839,30.525
					c-0.561,5.142,0.256,10.099,0,13.911c-0.195,2.904-0.995,14.139-7.828,10.82c-4.677-2.272-1.775-11.212-0.351-15.723
					c0.537-1.7,2.251-5.832,1.986-10.947c-0.473-9.156-1.285-12.999-0.645-21.299c0.118-1.529,0.331-8.057-0.29-14.733
					c-0.872-9.373-2.577-19.612-1.397-21.756C317.138,351.201,332.066,356.69,332.066,356.69z"/>
				<path fill="#FFA08D" d="M333.244,270.775c-4.435-1.553-7.554-8.614-8.739-11.73c0.058-0.108,0.125-0.217,0.164-0.325
					c1.429-3.909,0.467-9.563,0.467-9.563l9.83,2.684c0.112,2.23,0.144,4.398,1.319,5.706c0.335,0.374,0.912,0.706,1.58,1
					c0.902,1.794,2.76,5.703,3.68,9.186C342.299,270.589,337.553,272.283,333.244,270.775z"/>
				<g>
					<path fill="#FFC5B3" d="M340.028,232.797c4.678,4.864,2.791,21.682-4.083,22.785c-4.457,0.715-10.717-3.248-12.977-11.034
						C321.075,238.023,331.174,223.592,340.028,232.797z"/>
				</g>
				<path fill="#723F3F" d="M343.086,411.941c0,0,0.903,3.799,7.076,6.959c4.742,2.428,7.304,3.011,9.94,2.085
					c2.636-0.927,2.636-0.927,2.636-0.927s2.377,0.933,4.013,2.184c1.636,1.251,0.481,1.959-4.673,3.242
					c-5.154,1.283-8.895-0.953-11.916-3.242c-3.021-2.289-5.837-1.879-7.076-3.342C340.99,416.424,343.086,411.941,343.086,411.941z
					"/>
				<path fill="#723F3F" d="M323.642,428.51c0,0-0.251,7.627-2.57,10.034c-2.319,2.408-7.018,1.452-8.241-2.695
					c-1.222-4.147,0.858-5.745,0.858-5.745s1.557,4.846,4.324,4.643C320.779,434.544,323.642,428.51,323.642,428.51z"/>
			</g>
			<path fill="#FFED43" d="M350.554,312.386c-1.1-3.675-3.458-13.124-3.5-16.373c-0.088-6.774,0.3-7.166,1.601-12.818
				c3.009-5.245,2.972-9.233,1.721-11.857c-1.552-3.255-5.485-10.005-8.45-12.841c-0.926-0.885-2.566-3.375-3.805-3.889
				c-0.943,0.741-1.966,0.974-2.781,0.974c0.669,3.203,3.859,7.2,4.616,10.366c0.687,2.872-2.583,5.561-6.891,4.053
				c-4.435-1.553-6.653-10.412-7.838-13.527c-4.878,2.062-7.639,3.774-10.405,6.524c0,0-2.576,6.254,0.039,13.659
				c0.445,1.26,2.877,5.538,4.627,10.338c0.893,2.45,1.259,5.209,1.777,9.275c1.095,8.589-5.373,11.971-8.006,29.227
				c-2.647,17.346-0.912,30.839,0,40.68c0.319,3.442,0.682,17.08,0.682,17.08s11.388,5.512,19.661,1.736
				c8.273-3.776,12.64-9.107,19.079-10.054c7.984-1.174,12.444-4.208,12.444-4.208S356.176,331.178,350.554,312.386z"/>
			<path fill="#4F2525" d="M343.282,236.446c0,0-6.478,3.18-13.89,2.04c-1.059,1.055-1.377,2.645-1.977,4.228
				c-4.052-2.584-4.496,1.917-2.224,4.365c0.648,1.119-0.234,2.829-0.234,2.829s-6.353-5.066-5.365-12.387
				c-0.104-1.52-0.104-3.497,1.29-4.678c0.23-3.208,2.325-3.834,4.307-3.835c1.092-2.386,3.539-2.316,5.805-2.386
				c2.371-0.073,6.601,1.023,9.578,2.389C344.65,230.882,343.282,236.446,343.282,236.446z"/>
			<path fill="#4F2525" d="M334.492,229.012c0,0,0.088-6.015-2.997-7.646c-3.085-1.631-5.213,0-5.213,0s-1.439-4.368-3.608-4.672
				c-2.17-0.304-4.298,2.171-4.298,2.171s-2.435-1.046-3.953,0c-2.585,1.782,0,5.563,0,5.563s-4.789-0.284-5.169,4.123
				c-0.249,2.89,0,3.65-1.216,4.688c1.216,1.395,4.257,0.726,4.257,0.726s-1.52,2.614-0.912,4.074c0.608,1.46,2.63,2.394,2.63,2.394
				s-1.109-2.835,0.639-4.051c1.52,3.117,6.462,4.368,6.614,3.742C321.417,239.499,334.492,229.012,334.492,229.012z"/>
			<path fill="#F2BB40" d="M321.265,301.439l-1.777,4.179c0,0,5.436,4.827,13.576,4.733c8.14-0.094,16.036-3.397,16.036-3.397
				l-1.253-5.515c0,0-9.642,4.709-16.352,4.179C324.785,305.088,321.265,301.439,321.265,301.439z"/>
			<path fill="#F2BB40" d="M313.807,378.666c0,0,8.851,4.979,14.628,2.341c5.777-2.638,15.486-9.936,20.666-11.456
				c5.18-1.52,14.982-3.373,14.982-3.373l-0.848-3.664c0,0-5.63,1.513-14.134,4.275c-8.503,2.762-16.713,11.293-22.491,11.588
				c-5.778,0.296-12.881-2.083-12.881-2.083L313.807,378.666z"/>
		</g>
		<g>
			<polygon fill="#0AA5A5" points="445.368,293.408 347.132,350.125 347.132,292.328 445.368,235.611 			"/>
			<g>
				<path fill="#10C1BC" d="M442.124,283.059v-33.353c-2.686,0.283-4.826-1.271-5.84-4.226l-80.067,46.227
					c-1.015,4.126-3.154,8.151-5.84,10.97v33.353c2.686-0.283,4.826,1.271,5.84,4.226l80.067-46.227
					C437.298,289.903,439.438,285.878,442.124,283.059z"/>
			</g>
			<path fill="#0AA5A5" d="M409.599,282.104c0,9.83-5.976,21.249-13.349,25.505c-7.372,4.256-13.349-0.262-13.349-10.091
				c0-9.83,5.976-21.249,13.349-25.505C403.622,267.756,409.599,272.274,409.599,282.104z"/>
			<path fill="#0AA5A5" d="M373.773,305.845c0,4.758-2.893,10.284-6.461,12.344c-3.568,2.06-6.461-0.127-6.461-4.884
				c0-4.758,2.893-10.284,6.461-12.344C370.88,298.901,373.773,301.088,373.773,305.845z"/>
			<path fill="#24E0D6" d="M371.687,307.084c0,3.178-1.932,6.87-4.316,8.247c-2.384,1.376-4.316-0.085-4.316-3.263
				s1.932-6.87,4.316-8.247C369.755,302.444,371.687,303.905,371.687,307.084z"/>
			<path fill="#0AA5A5" d="M431.453,272.544c0,4.758-2.893,10.284-6.461,12.344c-3.568,2.06-6.461-0.127-6.461-4.884
				c0-4.758,2.893-10.284,6.461-12.344C428.56,265.6,431.453,267.786,431.453,272.544z"/>
			<path fill="#24E0D6" d="M429.308,273.782c0,3.178-1.932,6.87-4.316,8.247c-2.384,1.376-4.316-0.085-4.316-3.263
				s1.932-6.87,4.316-8.247C427.375,269.143,429.308,270.604,429.308,273.782z"/>
			<g>
				<path fill="#FFFFFF" d="M398.573,283.173c-0.68-0.568-1.266-0.724-2.059-0.266c-0.907,0.523-1.398,1.359-1.398,2.67
					c0,2.765,4.987-0.348,4.987,5.211c0,2.794-1.001,5.525-2.946,7.289v3.026l-1.833,1.058v-2.91
					c-1.114,0.439-2.437,0.446-3.325-0.293l1.209-3.579c0.963,0.55,1.795,0.651,2.702,0.128c1.057-0.611,1.53-1.553,1.53-2.892
					c0-2.997-4.987-0.059-4.987-5.298c0-2.852,1.096-5.464,2.871-7.042v-2.997l1.833-1.058v2.94
					c1.209-0.436,2.078-0.006,2.814,0.762L398.573,283.173z"/>
			</g>
			<polygon fill="#028985" points="347.132,350.125 341.926,346.999 341.926,289.469 347.132,292.328 			"/>
			<polygon fill="#24E0D6" points="341.926,289.469 347.132,292.328 445.368,235.611 440.241,232.668 			"/>
			<polygon fill="#0AA5A5" points="355.14,299.232 355.14,302.326 379.484,288.19 379.484,285.165 			"/>
			<polygon fill="#0AA5A5" points="411.131,266.907 411.131,270.001 435.476,255.866 435.476,252.84 			"/>
			<polygon fill="#0AA5A5" points="356.994,333.528 356.994,336.622 433.351,292.836 433.351,289.811 			"/>
		</g>
		<path fill="#FFC5B3" d="M317.755,262.134c-7.249-0.232-5.965,12.407-4.495,19.215c1.407,6.52,3.406,18.335,6.229,22.858
			c2.297,3.679,9.295,12.509,14.806,17.568c5.654,5.19,6.75,6.824,10.235,9.413c6.873,5.105,9.138,1.708,9.111-1.446
			s-4.771-3.978-6.508-5.933c-0.265-0.298,4.078-1.013,3.244-2.034c-0.467-0.571-6.31-1.662-7.772-2.809
			c-6.658-5.227-14.369-20.199-15.628-22.547C325.325,293.339,324.691,262.356,317.755,262.134z"/>
		<path fill="#FFA08D" d="M446.459,253.733c0,0-4.14,2.93-4.335,8.338c-0.195,5.408,3.486,5.681,6.02,2.781
			C450.678,261.952,449.578,253.984,446.459,253.733z"/>
	</g>
	<g>
		<g>
			<g>
				<polygon fill="#DD7224" points="446.589,517.44 446.563,425.374 520.126,382.848 520.126,474.809 				"/>
				<polygon fill="#F48F3B" points="446.589,517.44 446.563,425.374 373.001,382.848 373.001,474.809 				"/>
			</g>
			<g>
				<polygon fill="#F48F3B" points="378.984,382.848 446.563,421.915 446.587,421.901 446.587,343.789 				"/>
				<polygon fill="#DD7224" points="446.587,343.789 446.587,421.901 514.142,382.848 				"/>
				<g>
					<g>
						<path fill="#F2BB40" d="M477.509,389.919c-0.188-0.607-0.403-1.172-0.635-1.71l-17.108-3.888l-0.563,1.912
							c-0.574,0.517-1.146,1.069-1.714,1.682c-0.052,0.056-0.099,0.119-0.151,0.175l20.82,4.732
							C477.996,391.819,477.794,390.84,477.509,389.919z"/>
						<path fill="#F2BB40" d="M470.317,382.172l0.004-0.012l-9.294-2.125l-0.713,2.423l15.31,3.479
							C474.217,383.895,472.392,382.628,470.317,382.172z"/>
						<path fill="#F2BB40" d="M451.787,419.83c2.089-1.256,4.182-2.507,6.278-3.75l-2.792-0.634l-0.662-2.138l5.89,1.338
							c1.89-1.109,3.787-2.203,5.693-3.281l-5.008-1.138l-0.662-2.138l8.199,1.863c1.927-1.065,3.87-2.101,5.826-3.113
							l-14.995-3.408l-0.662-2.138l18.351,4.17c0.095-0.047,0.188-0.097,0.283-0.145c0.309-1.361,0.554-2.72,0.716-4.065
							l-20.32-4.618l-0.662-2.138l21.162,4.809c0.099-1.522,0.094-3.007-0.02-4.441l-22.112-5.025l-0.121-0.39
							c-6.554,8.089-9.988,20.386-8.307,29.488L451.787,419.83z"/>
						<polygon fill="#F48F3B" points="458.174,381.972 458.835,384.11 459.765,384.322 460.314,382.458 						"/>
						<path fill="#F48F3B" d="M475.624,385.938l-15.31-3.479l-0.549,1.863l17.108,3.888
							C476.508,387.364,476.087,386.611,475.624,385.938z"/>
						<path fill="#F48F3B" d="M455.628,387.702l0.541,1.748c0.379-0.468,0.769-0.921,1.168-1.36L455.628,387.702z"/>
						<path fill="#F48F3B" d="M478.402,394.866c-0.055-0.696-0.137-1.376-0.244-2.043l-20.82-4.732
							c-0.4,0.438-0.789,0.892-1.168,1.36l0.121,0.39L478.402,394.866z"/>
						<path fill="#F48F3B" d="M457.922,396.636l20.32,4.618c0.079-0.654,0.138-1.302,0.18-1.947l-21.162-4.809L457.922,396.636z"/>
						<path fill="#F48F3B" d="M474.55,406.839c0.895-0.463,1.791-0.926,2.693-1.376l-18.351-4.17l0.662,2.138L474.55,406.839z"/>
						<path fill="#F48F3B" d="M466.195,411.365c0.841-0.475,1.684-0.946,2.53-1.413l-8.199-1.863l0.662,2.138L466.195,411.365z"/>
						<path fill="#F48F3B" d="M440.791,417.331l0.662,2.138l6.902,1.569c-0.198-0.677-0.359-1.379-0.492-2.1L440.791,417.331z"/>
					</g>
					<g>
						<path fill="#FFED43" d="M468.478,387.846c-3.026-9.778-11.989-10.675-20.02-2.003c-7.802,8.424-11.833,22.766-9.283,32.543
							c2.335,1.593,4.696,3.143,6.967,4.814c6.492-3.873,12.956-7.806,19.527-11.536
							C469.287,403.763,470.562,394.578,468.478,387.846z"/>
						<g>
							<path fill="#F2BB40" d="M466.088,390.18c-1.111-3.719-3.293-6.125-6.147-6.772c-3.414-0.776-7.431,1.047-11.021,5
								c-6.695,7.371-10.128,20.106-7.653,28.388c0.617,2.068,1.574,3.718,2.787,4.897c0.516,0.356,1.018,0.73,1.527,1.096
								c0.227,0.12,0.451,0.249,0.687,0.35c0.333-0.199,0.667-0.396,0.999-0.595c-2.335-0.691-4.142-2.8-5.104-6.016
								c-2.391-8.002,0.951-20.333,7.449-27.49c3.356-3.697,7.046-5.417,10.121-4.717c1.038,0.236,1.979,0.746,2.796,1.503
								c1.158,1.073,2.07,2.642,2.663,4.625c2.076,6.947-0.174,17.156-5.055,24.411c0.585-0.344,1.169-0.691,1.755-1.033
								C466.224,406.494,468.091,396.88,466.088,390.18z"/>
						</g>
					</g>
					<g>
						<g>
							<path fill="#F48F3B" d="M457.855,402.356c0.411-1.421,0.545-2.41,0.28-3.267c-0.304-0.978-0.836-1.112-1.706-0.174
								c-1.839,1.987-0.017,7.205-3.713,11.196c-1.858,2.006-3.624,2.472-4.7,0.829l-2.014,2.175l-0.612-1.976l1.936-2.09
								c-0.238-1.35-0.176-3.319,0.36-5.181l2.32-0.761c-0.413,1.834-0.523,3.15-0.219,4.128c0.353,1.142,0.955,1.17,1.846,0.208
								c1.993-2.152,0.289-7.49,3.773-11.253c1.897-2.049,3.579-2.287,4.54-0.767l1.993-2.152l0.612,1.976l-1.955,2.111
								c0.229,1.494-0.099,3.1-0.647,4.751L457.855,402.356z"/>
						</g>
					</g>
				</g>
				<g>
					<g>
						<path fill="#F2BB40" d="M445.51,381.338c-0.229-0.593-0.482-1.142-0.751-1.662l-17.334-2.708l-0.43,1.946
							c-0.538,0.555-1.071,1.145-1.595,1.795c-0.048,0.059-0.091,0.125-0.139,0.185l21.095,3.296
							C446.127,383.201,445.858,382.238,445.51,381.338z"/>
						<path fill="#F2BB40" d="M437.806,374.102l0.003-0.012l-9.417-1.484l-0.546,2.466l15.512,2.424
							C441.814,375.553,439.907,374.415,437.806,374.102z"/>
						<path fill="#F2BB40" d="M425.623,387.292l21.441,3.35c-0.005-1.525-0.112-3.007-0.324-4.429l-22.404-3.5l-0.147-0.381
							c-4.863,6.922-7.427,16.448-7.004,24.596c3.781,2.363,7.577,4.706,11.37,7.053l9.976,1.559
							c0.074-0.09,0.151-0.162,0.224-0.253c1.077-1.336,2.049-2.81,2.934-4.363l-16.617-2.596l-0.806-2.088l18.394,2.874
							c0.681-1.364,1.29-2.779,1.821-4.231l-13.866-2.166l-0.807-2.088l15.315,2.393c0.437-1.387,0.795-2.796,1.089-4.209
							l-17.691-2.764l-0.807-2.088l18.844,2.944c0.233-1.448,0.385-2.887,0.457-4.307l-20.588-3.216L425.623,387.292z"/>
						<polygon fill="#F48F3B" points="425.677,374.733 426.483,376.821 427.426,376.968 427.845,375.072 						"/>
						<path fill="#F48F3B" d="M443.357,377.495l-15.512-2.424l-0.42,1.896l17.334,2.708
							C444.338,378.858,443.866,378.136,443.357,377.495z"/>
						<path fill="#F48F3B" d="M423.53,380.624l0.659,1.707c0.346-0.493,0.704-0.972,1.073-1.436L423.53,380.624z"/>
						<path fill="#F48F3B" d="M446.741,386.212c-0.103-0.691-0.231-1.364-0.384-2.022l-21.095-3.296
							c-0.369,0.465-0.726,0.944-1.073,1.436l0.147,0.381L446.741,386.212z"/>
						<path fill="#F48F3B" d="M426.43,389.38l20.588,3.216c0.034-0.658,0.049-1.309,0.047-1.954l-21.441-3.35L426.43,389.38z"/>
						<path fill="#F48F3B" d="M428.523,396.048l17.691,2.764c0.132-0.636,0.244-1.272,0.346-1.908l-18.844-2.944L428.523,396.048z"
							/>
						<path fill="#F48F3B" d="M430.617,402.715l13.866,2.166c0.225-0.616,0.445-1.235,0.643-1.862l-15.315-2.393L430.617,402.715z"
							/>
						<path fill="#F48F3B" d="M424.267,406.238l0.807,2.088l16.617,2.596c0.337-0.592,0.663-1.194,0.971-1.81L424.267,406.238z"/>
						<path fill="#F48F3B" d="M432.729,416.594l4.259,0.665c0.521-0.526,1.035-1.105,1.543-1.721l-9.976-1.559
							C429.951,414.844,431.339,415.721,432.729,416.594z"/>
					</g>
					<g>
						<path fill="#FFED43" d="M429.156,414.351c0.149-0.176,0.302-0.332,0.45-0.516c7.418-9.2,10.442-24.399,6.754-33.947
							c-3.688-9.548-12.692-9.829-20.11-0.629c-4.707,5.837-7.635,14.086-8.212,21.777
							C414.966,405.643,422.079,409.965,429.156,414.351z"/>
						<g>
							<path fill="#F2BB40" d="M410.878,402.894c-0.051-7.001,2.411-15.047,6.741-20.526c3.095-3.918,6.658-5.886,9.775-5.399
								c1.052,0.164,2.025,0.609,2.892,1.308c1.229,0.991,2.246,2.494,2.973,4.432c2.933,7.819,0.443,20.351-5.55,27.936
								c-0.528,0.668-1.073,1.257-1.624,1.81c0.273,0.169,0.546,0.337,0.819,0.506c0.522-0.535,1.038-1.103,1.538-1.735
								c6.174-7.814,8.727-20.754,5.691-28.845c-1.363-3.635-3.705-5.885-6.596-6.336c-3.459-0.541-7.342,1.552-10.653,5.742
								c-4.325,5.472-6.817,13.439-6.913,20.515C410.275,402.5,410.576,402.698,410.878,402.894z"/>
						</g>
					</g>
					<g>
						<path fill="#F48F3B" d="M426.839,395.224c0.308-1.431,0.373-2.416,0.053-3.243c-0.365-0.946-0.898-1.041-1.694-0.054
							c-1.677,2.081,0.474,7.105-2.9,11.29c-1.697,2.103-3.408,2.679-4.579,1.135l-1.837,2.277l-0.74-1.909l1.767-2.191
							c-0.325-1.316-0.398-3.265,0.003-5.133l2.236-0.908c-0.284,1.839-0.302,3.141,0.063,4.088
							c0.426,1.101,1.023,1.092,1.836,0.084c1.819-2.256-0.225-7.415,2.954-11.358c1.731-2.147,3.374-2.495,4.426-1.058l1.819-2.256
							l0.739,1.91l-1.784,2.212c0.327,1.459,0.112,3.067-0.315,4.731L426.839,395.224z"/>
					</g>
				</g>
				<path fill="#FFA76C" d="M446.589,340.33l-73.588,42.517l73.562,42.526l73.562-42.526L446.589,340.33z M446.563,421.915
					l-67.579-39.067l67.603-39.059l67.555,39.059l-67.555,39.053L446.563,421.915z"/>
			</g>
		</g>
		<g>
			<path fill="#FFFFFF" d="M422.944,444.446c0-10.929-6.645-23.624-14.841-28.357c-8.197-4.732-14.841,0.291-14.841,11.22
				c0,4.472,1.126,9.234,3.002,13.631l-0.02-0.012c0,0,1.587,3.536,2.212,4.794c0.87,1.752,1.719,3.588,1.719,5.267
				c0,3.597,0,7.387,0,7.387l15.85,9.184c0,0,0.015-6.632,0.015-7.478c0-1.666,0.813-2.063,2.088-3.375
				c1.142-1.175,1.793-2.072,1.793-2.072C421.81,452.406,422.944,448.935,422.944,444.446z"/>
			<g>
				<path fill="#F48F3B" d="M406.05,471.116c-0.473,0-0.858-0.384-0.858-0.858V445.94c0-8.747-1.235-10.68-2.569-11.468
					c-0.402-0.237-0.975-0.467-1.412-0.218c-0.554,0.316-0.885,1.318-0.885,2.68c0,3.749,3.026,4.696,3.057,4.705
					c0.454,0.136,0.712,0.614,0.576,1.068c-0.135,0.454-0.613,0.711-1.068,0.576c-1.48-0.443-4.28-2.339-4.28-6.349
					c0-2.045,0.621-3.526,1.749-4.169c0.901-0.516,2.014-0.431,3.135,0.229c2.487,1.468,3.412,4.976,3.412,12.945v24.318
					C406.908,470.732,406.523,471.116,406.05,471.116z"/>
			</g>
			<g>
				<path fill="#F48F3B" d="M409.189,470.431c-0.473,0-0.858-0.384-0.858-0.858v-27.969c0-1.371,0.596-2.534,1.593-3.109
					c0.584-0.338,1.83-0.75,3.614,0.281c2.815,1.627,3.23,4.638,3.257,7.649c0.013,1.353-0.4,2.275-1.226,2.741
					c-1.496,0.845-3.595-0.399-3.83-0.543c-0.402-0.249-0.527-0.775-0.279-1.178c0.247-0.403,0.774-0.529,1.179-0.283
					c0.604,0.369,1.666,0.753,2.088,0.51c0.231-0.131,0.359-0.58,0.353-1.232c-0.027-2.892-0.445-5.05-2.401-6.179
					c-0.544-0.314-1.317-0.62-1.898-0.281c-0.453,0.261-0.735,0.884-0.735,1.624v27.969
					C410.047,470.046,409.662,470.431,409.189,470.431z"/>
			</g>
			<path fill="#723F3F" d="M408.103,485.035L408.103,485.035c-4.361-2.518-7.928-9.334-7.928-15.149v-12.44l15.857,9.128v12.467
				C416.031,484.856,412.463,487.553,408.103,485.035z"/>
			<path fill="#8E5959" d="M415.796,473.561l-15.387-8.884c-0.709-0.409-1.29-1.518-1.29-2.464l0,0c0-0.946,0.58-1.385,1.29-0.975
				l15.387,8.884c0.709,0.41,1.29,1.518,1.29,2.464l0,0C417.086,473.531,416.506,473.97,415.796,473.561z"/>
			<path fill="#8E5959" d="M415.796,480.658l-15.387-8.884c-0.709-0.409-1.29-1.518-1.29-2.464l0,0c0-0.946,0.58-1.384,1.29-0.975
				l15.387,8.884c0.709,0.409,1.29,1.518,1.29,2.464l0,0C417.086,480.629,416.506,481.067,415.796,480.658z"/>
		</g>
		<polygon fill="#DD7224" points="373.001,382.848 353.564,354.261 427.153,311.734 446.589,340.33 		"/>
		<polygon fill="#F48F3B" points="520.177,382.848 539.614,354.261 466.026,311.734 446.589,340.33 		"/>
		<polygon fill="#F48F3B" points="446.563,425.374 468.584,422.294 542.146,379.486 520.177,382.848 		"/>
		<polygon fill="#DD7224" points="446.403,425.374 424.382,422.294 350.82,379.486 372.789,382.848 		"/>
	</g>
</g>
<g>
	<path fill="#C1592B" d="M627.363,304.012c-2.314,2.248-8.48,18.946-8.48,18.946s-10.636,4.663-15.209,5.595
		c-1.213,0.247-2.654,0.532-4.126,0.773c1.331,2.106,2.208,4.448,2.563,6.888c3.639-0.219,12.323-0.779,16.641-1.39
		c5.602-0.793,9.745-2.226,10.689-4.839c0.526-1.458,5.827-19.037,5.62-30.959C632.262,300.223,629.774,301.668,627.363,304.012z"/>
	<g>
		<path fill="#C1592B" d="M629.013,385.05c0,0,1.536,9.689,1.599,14.025c0.064,4.336,0.136,6.254,1.082,11.588
			c0.892,5.031,2.225,25.218,2.259,31.892c0.034,6.674-4.058,12.881-5.583,15.292s3.315,6.181,6.992,2.664
			c3.676-3.516,4.059-4.203,6.134-5.305c2.075-1.102,3.612-5.85,1.972-11.111c-1.64-5.261-0.841-15.647,0.902-24.744
			c1.743-9.097-0.793-20.656,0.229-23.376C645.621,393.255,629.013,385.05,629.013,385.05z"/>
		<path fill="#4F2525" d="M628.371,457.848c0,0-4.524,3.768-6.036,5.608c-1.512,1.839,3.172,4.545,7.626,2.994
			c4.454-1.552,8.115-5.752,11.649-8.911c3.466-3.098,4.412-4.206,4.239-7.758c-0.085-1.748-1.887-3.591-1.887-3.591
			s-1.104,7.206-6.182,10.225C632.933,459.295,630.937,459.738,628.371,457.848z"/>
		<path fill="#D87745" d="M643.162,392.875c0,0,0.541,9.737,0.604,14.073c0.064,4.336,0.749,5.721,2.035,10.666
			c1.285,4.944,2.268,26.092,2.302,32.766c0.034,6.675-4.058,12.882-5.583,15.292s3.316,6.181,6.991,2.664
			c3.676-3.516,4.06-4.203,6.134-5.305c2.075-1.102,3.612-5.85,1.972-11.111c-1.64-5.261-0.841-15.648,0.902-24.745
			c1.743-9.097-1.158-20.713-0.522-23.548c1.562-6.97,5.325-17.704,1.404-20.054C655.29,381.111,643.162,392.875,643.162,392.875z"
			/>
		<path fill="#4F2525" d="M642.52,465.672c0,0-4.524,3.768-6.036,5.607c-1.512,1.839,3.171,4.545,7.626,2.994
			c4.454-1.552,8.115-5.752,11.649-8.911c3.466-3.098,4.412-4.206,4.239-7.758c-0.085-1.748-1.887-3.591-1.887-3.591
			s-1.104,7.205-6.182,10.225C647.082,467.119,645.087,467.561,642.52,465.672z"/>
		<path fill="#4F2525" d="M626.177,348.17c0,0-0.214,10.729-0.392,19.651c-0.218,10.959,1.477,24.029,1.477,24.029
			s16.289,12.605,22.075,10.549c9.357-3.325,14.009-10.673,14.009-10.673s0.218-24.996-4.387-41.319
			C654.353,334.084,626.539,339.651,626.177,348.17z"/>
		<path fill="#FFED43" d="M664.816,311.43c-0.849-5.904-13.039-13.523-13.039-13.523s-4.109,7.597-6.167,9.209
			c-1.97,1.544-5.256,5.502-5.535,5.839c-0.016-0.002-0.033-0.004-0.049-0.006c0.042-0.652,0.435-5.871,2.479-11.44
			c0.643-1.752-0.335-6.878-0.335-6.878s-0.818-0.204-2.001-0.415c-1.777,1.967-5.269,7.193-7.163,9.358
			c-1.828,2.089-7.205,9.329-5.562,16.17c1.401,5.835,2.137,13.509,1.986,16.39c-0.174,3.309-3.253,12.036-3.253,12.036
			s7.596,8.799,15.741,8.439c9.508-0.421,16.25-7.135,16.25-7.135s-2.276-14.383-1.971-20.323
			C656.196,329.151,666.471,322.94,664.816,311.43z"/>
		<path fill="#F2BB40" d="M622.616,308.905c0,0,2.354,1.914,5.346,3.389c7.049-13.183,14.208-17.662,14.208-17.662
			S633.158,286.647,622.616,308.905z"/>
		<g>
			<path fill="#C1592B" d="M641.558,295.422c0,0,0.077,5.879-0.963,9.014c-0.869,1.358-1.749,5.637-1.231,9.367
				c1.928-1.092,4.955-4.582,6.907-6.146c4.418-3.54,6.19-7,6.19-7l0.747-16.608L641.558,295.422z"/>
			<path fill="#D87745" d="M647.554,274.444c-3.984-2.74-13.131-3.236-15.996,6.329c-3.005,10.031,6.518,21.914,11.172,19.59
				c2.606-1.301,8.003-5.736,9.328-11.004C653.549,283.429,650.65,276.573,647.554,274.444z"/>
		</g>
	</g>
	<g>
		<g>
			<path fill="#028985" d="M620.748,359.472l-26.291-15.179c-1.888-1.09-3.433-4.042-3.433-6.559v-19.791
				c0-2.517,1.545-3.685,3.433-2.595l26.291,15.179c1.888,1.09,3.433,4.042,3.433,6.559v19.791
				C624.181,359.395,622.636,360.563,620.748,359.472z"/>
			<polygon fill="#028985" points="620.107,361.279 623.006,359.64 620.355,355.994 			"/>
			<polygon fill="#028985" points="589.334,316.825 592.323,315.115 594.144,319.433 			"/>
			<path fill="#0AA5A5" d="M618.015,361.026l-26.291-15.179c-1.888-1.09-3.433-4.041-3.433-6.559v-19.791
				c0-2.518,1.545-3.686,3.433-2.596l26.291,15.179c1.888,1.09,3.433,4.042,3.433,6.559v19.791
				C621.448,360.948,619.903,362.116,618.015,361.026z"/>
		</g>
		<polygon fill="#723F3F" points="618.883,336.447 590.857,320.238 590.857,322.09 618.883,338.298 		"/>
		<polygon fill="#723F3F" points="618.883,340.425 590.857,324.216 590.857,326.068 618.883,342.276 		"/>
		<polygon fill="#FFFFFF" points="618.883,355.172 590.857,338.963 590.857,340.815 618.883,357.023 		"/>
		<path fill="#FFFFFF" d="M595.56,339.481l-2.833-1.635c-1.06-0.612-1.927-2.269-1.927-3.682v-3.777
			c0-1.413,0.867-2.069,1.927-1.457l2.833,1.635c1.06,0.612,1.927,2.269,1.927,3.683v3.777
			C597.488,339.438,596.62,340.094,595.56,339.481z"/>
		<g>
			<path fill="#FFFFFF" d="M599.596,335.451l0.442,1.151c0.117,0.298,0.21,0.569,0.316,0.862l0.02,0.014
				c0.102-0.194,0.203-0.352,0.305-0.515l0.438-0.632l0.609,0.352l-1.058,1.399l1.09,2.78l-0.64-0.37l-0.458-1.201
				c-0.121-0.311-0.223-0.604-0.331-0.916l-0.012-0.005c-0.101,0.19-0.212,0.352-0.33,0.533l-0.449,0.676l-0.62-0.356l1.101-1.489
				l-1.052-2.649L599.596,335.451z"/>
			<path fill="#FFFFFF" d="M602.602,337.188l0.442,1.146c0.117,0.302,0.21,0.569,0.315,0.866l0.02,0.009
				c0.102-0.19,0.203-0.347,0.305-0.515l0.438-0.632l0.609,0.352l-1.058,1.403l1.09,2.78l-0.64-0.37l-0.458-1.205
				c-0.121-0.307-0.223-0.6-0.331-0.911l-0.012-0.009c-0.102,0.19-0.212,0.352-0.329,0.533l-0.449,0.681l-0.621-0.361l1.101-1.485
				l-1.052-2.649L602.602,337.188z"/>
			<path fill="#FFFFFF" d="M605.602,338.921l0.442,1.146c0.117,0.302,0.21,0.569,0.315,0.866l0.02,0.009
				c0.102-0.19,0.203-0.348,0.305-0.515l0.438-0.632l0.609,0.352l-1.058,1.404l1.09,2.78l-0.64-0.37l-0.458-1.205
				c-0.12-0.307-0.221-0.6-0.332-0.911l-0.012-0.009c-0.101,0.19-0.212,0.352-0.329,0.533l-0.449,0.681l-0.621-0.361l1.101-1.485
				l-1.052-2.649L605.602,338.921z"/>
			<path fill="#FFFFFF" d="M608.131,341.917l1.575,0.912v0.893l-1.575-0.911V341.917z"/>
			<path fill="#FFFFFF" d="M610.717,341.872l0.442,1.151c0.117,0.298,0.212,0.568,0.316,0.862l0.02,0.009
				c0.101-0.189,0.203-0.343,0.305-0.51l0.438-0.636l0.609,0.352l-1.058,1.403l1.09,2.78l-0.641-0.37l-0.456-1.2
				c-0.122-0.311-0.224-0.6-0.334-0.916l-0.011-0.005c-0.102,0.19-0.21,0.352-0.327,0.532l-0.451,0.677l-0.621-0.357l1.104-1.489
				l-1.051-2.644L610.717,341.872z"/>
			<path fill="#FFFFFF" d="M613.722,343.605l0.442,1.155c0.117,0.298,0.212,0.569,0.316,0.858l0.02,0.013
				c0.101-0.19,0.203-0.347,0.305-0.51l0.437-0.636l0.609,0.352l-1.058,1.404l1.09,2.78l-0.641-0.37l-0.455-1.2
				c-0.122-0.316-0.224-0.605-0.334-0.916l-0.011-0.009c-0.102,0.194-0.21,0.352-0.327,0.537l-0.451,0.677l-0.621-0.361l1.101-1.489
				l-1.049-2.645L613.722,343.605z"/>
			<path fill="#FFFFFF" d="M616.726,345.338l0.44,1.155c0.117,0.298,0.212,0.569,0.318,0.858l0.018,0.013
				c0.101-0.19,0.203-0.348,0.305-0.51l0.438-0.636l0.611,0.352l-1.061,1.404l1.09,2.78l-0.641-0.37l-0.455-1.2
				c-0.122-0.316-0.224-0.605-0.332-0.916l-0.013-0.009c-0.102,0.194-0.21,0.352-0.327,0.537l-0.449,0.677l-0.623-0.361l1.104-1.489
				l-1.051-2.645L616.726,345.338z"/>
		</g>
	</g>
	<path fill="#D87745" d="M664.847,310.273c-2.186-4.806-8.074,0.879-8.887,3.115c-1.853,5.092-2.54,9.266-2.752,15.975
		c-0.158,5-0.75,14.249-0.75,14.249s-12.956,4.316-17.529,5.248c-2.921,0.595-7.076,1.476-10.127,1.176
		c-1.667-0.164-2.925-1.402-3.658-1.517c-1.428-0.223-1.903,0.637-0.797,1.517c1.274,1.013,2.058,1.953,2.058,1.953
		s-3.358,0.248-5.474,2.294c-1.278,1.236-1.226,3.625,4.484,4.753c2.935,0.579,6.864-1.251,10.269-2.416
		c0-0.002,12.779-0.704,18.322-1.489c5.602-0.793,11.458-3.06,12.402-5.674C663.097,347.549,669.033,319.476,664.847,310.273z"/>
	<path fill="#F2BB40" d="M661.128,306.826c-3.536,0.916-7.076,5.995-7.92,11.842c-0.845,5.847-0.747,12.201-0.747,12.201
		s5.869,4.061,9.625,3.092c3.757-0.969,4.415-3.092,4.415-3.092S670.596,304.375,661.128,306.826z"/>
	<path fill="#4F2525" d="M656.71,276.479c-1.827-3.008-5.967-7.044-8.92-8.095c-5.917-2.107-9.806,0.139-15.027,5.433
		c-3.14,3.183-4.477,6.826-4.202,12.481c0,0,8.736,5.614,13.866,6.419c2.378,0.373,5.567-1.187,7.429-2.216
		c0.352,2.584,0.721,5.516,0.789,6.915c0.136,2.801-0.571,6.92-0.571,6.92s7.539-1.816,9.615-5.211
		C661.764,295.731,660.016,281.926,656.71,276.479z"/>
	<path fill="#C1592B" d="M588.324,329.095c1.228,0.396,2.451,2.075,2.476,4.751c0.025,2.677-1.004,4.076-2.543,3.473
		C586.718,336.718,585.648,328.231,588.324,329.095z"/>
</g>
</svg>
