<svg id="icons" enable-background="new 0 0 64 64" height="512" viewBox="0 0 64 64" width="512" xmlns="http://www.w3.org/2000/svg"><path d="m50 58.004c0 3.3-2.7 6-6 6h-24c-3.3 0-6-2.7-6-6v-48.005c0-3.3 2.7-6 6-6h24c3.3 0 6 2.7 6 6z" fill="#545c66"/><path d="m50 54.001c0 3.3-2.7 6-6 6h-24c-3.3 0-6-2.7-6-6v-48.005c0-3.3 2.7-6 6-6h24c3.3 0 6 2.7 6 6z" fill="#656d78"/><path d="m32 53.496c1.1 0 2 .9 2 2 0 1.11-.9 2-2 2s-2-.89-2-2c0-1.1.9-2 2-2z" fill="#aab2bd"/><path d="m29.03 4.498c-.553 0-1.005-.447-1.005-1s.442-1 .994-1h.011c.552 0 1 .447 1 1s-.448 1-1 1z" fill="#5d9cec"/><path d="m35 4.498h-3c-.553 0-1-.447-1-1s.447-1 1-1h3c.553 0 1 .447 1 1s-.447 1-1 1z" fill="#545c66"/><path d="m16 6.998h32v44h-32z" fill="#e6e9ed"/><path d="m41.5 37.996h-19v-.01c-.83 0-1.5-.67-1.5-1.5 0-.82.67-1.49 1.5-1.49h19c.83 0 1.5.67 1.5 1.5 0 .82-.67 1.5-1.5 1.5z" fill="#fff"/><path d="m41.5 33.998h-19v-.01c-.83 0-1.5-.67-1.5-1.5 0-.82.67-1.49 1.5-1.49h19c.83 0 1.5.67 1.5 1.5 0 .82-.67 1.5-1.5 1.5z" fill="#fff"/><path d="m32 23.999c1.74 0 3.22 1.1 3.77 2.66-1.029.84-2.34 1.34-3.77 1.34s-2.74-.5-3.77-1.34c.55-1.55 2.03-2.66 3.77-2.66z" fill="#ac92ec"/><path d="m30 21.999c0 1.1.9 2 2 2-1.74 0-3.22 1.11-3.77 2.66-1.36-1.09-2.23-2.78-2.23-4.66 0-3.32 2.69-6 6-6s6 2.68 6 6c0 1.88-.87 3.57-2.23 4.66-.55-1.561-2.029-2.66-3.77-2.66 1.1 0 2-.9 2-2 0-1.11-.9-2-2-2s-2 .89-2 2z" fill="#656d78"/><path d="m37 39.496h-10c-.827 0-1.5.673-1.5 1.5s.673 1.5 1.5 1.5h10c.827 0 1.5-.673 1.5-1.5s-.673-1.5-1.5-1.5z" fill="#5d9cec"/><path d="m34.5 22.499c0 1.374-1.125 2.5-2.5 2.5s-2.5-1.126-2.5-2.5c0-1.388 1.125-2.5 2.5-2.5s2.5 1.112 2.5 2.5z" fill="#eac6bb"/></svg>