<svg height="464pt" viewBox="-48 0 464 464" width="464pt" xmlns="http://www.w3.org/2000/svg"><path d="m0 0h368v48h-368zm0 0" fill="#7d8d9c"/><path d="m16 48h336v64h-336zm0 0" fill="#aabece"/><path d="m104 464v-32h96v32zm0 0" fill="#aabece"/><path d="m96 80h176v208h-176zm0 0" fill="#a9d39f"/><path d="m40 72h16v16h-16zm0 0" fill="#364a5b"/><path d="m312 72h16v16h-16zm0 0" fill="#364a5b"/><path d="m248 264h-48v-16h32v-32h16zm0 0" fill="#78a36c"/><path d="m120 216h16v48h-16zm0 0" fill="#78a36c"/><path d="m200 184c0 8.835938-7.164062 16-16 16s-16-7.164062-16-16 7.164062-16 16-16 16 7.164062 16 16zm0 0" fill="#fcf05a"/><path d="m120 80h16v120h-16zm0 0" fill="#78a36c"/><path d="m232 80h16v120h-16zm0 0" fill="#78a36c"/><path d="m184 136c30.929688 0 56-25.070312 56-56h-112c0 30.929688 25.070312 56 56 56zm0 0" fill="#d9e5d6"/><path d="m72 72h224v16h-224zm0 0" fill="#364a5b"/><path d="m176 288v-40c0-8.835938-7.164062-16-16-16h-8c-8.835938 0-16 7.164062-16 16v40h-40v-104l-32 32v104l40 112h96v-88zm0 0" fill="#ffd782"/><path d="m128 288h16v40h-16zm0 0" fill="#d39c39"/></svg>